<?xml version="1.0" encoding="utf-8"?><svg viewBox="0 0 30 30" xmlns="http://www.w3.org/2000/svg" xmlns:xlink="http://www.w3.org/1999/xlink"><style>:root>svg{display:none}:root>svg:target{display:block}</style><svg fill="none" viewBox="0 0 30 30" id="cart" xmlns="http://www.w3.org/2000/svg"><path d="M27.538 24.22l-1.666-15a1.405 1.405 0 00-1.398-1.25h-4.34a5.155 5.155 0 00-10.268 0h-4.34A1.405 1.405 0 004.13 9.22l-1.666 15a1.406 1.406 0 001.397 1.562h22.28a1.407 1.407 0 001.398-1.562zM15 4.22a4.224 4.224 0 014.192 3.75h-8.384A4.224 4.224 0 0115 4.22zm11.49 20.468a.463.463 0 01-.35.156H3.86a.469.469 0 01-.466-.52l1.667-15a.468.468 0 01.466-.417h4.317v3.28a.469.469 0 10.938 0v-3.28h8.437v3.28a.469.469 0 10.938 0v-3.28h4.317a.468.468 0 01.466.417l1.666 15a.463.463 0 01-.116.364z" fill="#fff"/></svg><svg fill="none" viewBox="0 0 18 18" id="close" xmlns="http://www.w3.org/2000/svg"><path d="M13.43 4.062l.508.509-9.367 9.367-.51-.509 9.368-9.367z" fill="#7C7C7C"/><path d="M4.57 4.062l9.368 9.367-.509.51L4.062 4.57l.509-.51z" fill="#7C7C7C"/></svg><svg fill="none" viewBox="0 0 25 25" id="instagram" xmlns="http://www.w3.org/2000/svg"><path d="M12.488 8.326a4.174 4.174 0 00-4.165 4.166 4.174 4.174 0 004.165 4.165 4.174 4.174 0 004.166-4.165 4.174 4.174 0 00-4.166-4.166zm12.494 4.166c0-1.725.016-3.435-.081-5.157-.097-2 .05-4.381-1.413-5.844C22.023.026 19.648.18 17.648.082c-1.725-.097-3.435-.081-5.156-.081-1.725 0-3.435-.016-5.157.081-2 .097-4.384-.053-5.846 1.41C.023 2.956.179 5.334.082 7.334-.015 9.06.001 10.77.001 12.492c0 1.721-.016 3.434.081 5.156.097 2-.056 4.38 1.407 5.843 1.465 1.466 3.846 1.313 5.846 1.41 1.725.097 3.435.081 5.157.081 1.725 0 3.434.016 5.156-.081 2-.097 4.378.053 5.84-1.41 1.466-1.465 1.316-3.843 1.413-5.843.1-1.722.081-3.431.081-5.156zM12.488 18.9a6.4 6.4 0 01-6.409-6.41 6.4 6.4 0 016.41-6.409 6.4 6.4 0 016.409 6.41 6.4 6.4 0 01-6.41 6.409zM19.16 7.317a1.495 1.495 0 01-1.497-1.497c0-.828.67-1.497 1.497-1.497a1.495 1.495 0 011.384 2.07 1.494 1.494 0 01-1.384.924z" fill="#43FFD2"/></svg><svg fill="none" viewBox="0 0 12 12" id="loading" xmlns="http://www.w3.org/2000/svg"><path d="M6.708 2.364H5.292v-3.18h1.416v3.18zm0 8.82H5.292v-3.18h1.416v3.18zM8.82 5.892V4.476H12v1.416H8.82zM0 4.476h3.18v1.416H0V4.476zm3.504-.792L1.26 1.44l.996-.996L4.5 2.688l-.996.996zm6.24 6.24L7.5 7.68l.996-.996 2.244 2.244-.996.996zm-7.488 0l-.996-.996 2.244-2.244.996.996-2.244 2.244z" fill="#040A0A"/></svg><svg fill="none" viewBox="0 0 12 12" id="loadingWhite" xmlns="http://www.w3.org/2000/svg"><path d="M6.708 2.364H5.292v-3.18h1.416v3.18zm0 8.82H5.292v-3.18h1.416v3.18zM8.82 5.892V4.476H12v1.416H8.82zM0 4.476h3.18v1.416H0V4.476zm3.504-.792L1.26 1.44l.996-.996L4.5 2.688l-.996.996zm6.24 6.24L7.5 7.68l.996-.996 2.244 2.244-.996.996zm-7.488 0l-.996-.996 2.244-2.244.996.996-2.244 2.244z" fill="#fff"/></svg><svg fill="none" viewBox="0 0 18 18" id="mob-menu-close" xmlns="http://www.w3.org/2000/svg"><path d="M13.43 4.062l.508.509-9.367 9.367-.51-.509 9.368-9.367z" fill="#43FFD2"/><path d="M4.57 4.062l9.368 9.367-.509.51L4.062 4.57l.509-.51z" fill="#43FFD2"/></svg><svg fill="none" viewBox="0 0 24 24" id="phone" xmlns="http://www.w3.org/2000/svg"><path d="M19.99 24h-16c-2 0-2.526-.293-3.112-.879C.293 22.535-.01 22 0 20V4C0 2 .293 1.465.878.879 1.464.293 1.99 0 3.99 0h16c.828 0 2.014.012 3 1 .987.988.987 2.172.987 3v16c.013 2-.293 2.535-.878 3.121-.586.586-1.109.879-3.109.879zM7.493 9V6.75c0-.422-.129-.836-.386-1.242-.258-.406-.543-.696-.855-.867-.312-.172-.554-.18-.726-.024l-1.71 1.735c-.467.468-.733 1.097-.795 1.886-.063.79.058 1.649.363 2.578.304.93.792 1.914 1.463 2.954a18.08 18.08 0 002.412 2.964 18.067 18.067 0 002.962 2.414c1.038.672 2.021 1.165 2.95 1.477.929.313 1.787.438 2.576.375.788-.063 1.416-.328 1.884-.797l1.733-1.734c.156-.157.148-.395-.023-.715-.172-.32-.46-.61-.867-.867-.405-.258-.82-.387-1.24-.387h-2.248l-1.522.938c-.703-.188-1.57-.696-2.6-1.524a18.105 18.105 0 01-2.786-2.789c-.827-1.031-1.334-1.898-1.522-2.602L7.493 9zm8.944 3.75l1.522.258c-.125-1.875-.85-3.477-2.177-4.805-1.327-1.328-2.92-2.055-4.777-2.18l.234 1.524a5.838 5.838 0 013.489 1.71 5.848 5.848 0 011.71 3.493zM11.52 9.117l.281 1.688c.609.297 1.07.758 1.382 1.383l1.685.28a4.49 4.49 0 00-1.205-2.144 4.485 4.485 0 00-2.143-1.207zM10.49 3l.258 1.523c1.56.032 3 .442 4.32 1.23a9.02 9.02 0 013.16 3.165 8.628 8.628 0 011.23 4.324l1.522.258c0-1.422-.277-2.781-.832-4.078-.554-1.297-1.299-2.414-2.236-3.352-.936-.937-2.052-1.683-3.348-2.238A10.245 10.245 0 0010.49 3z" fill="#43FFD2"/></svg><svg fill="none" viewBox="0 0 16 16" id="phone-light" xmlns="http://www.w3.org/2000/svg"><path d="M13 14.667c.551 0 1-.449 1-1v-2.334c0-.551-.449-1-1-1a7.26 7.26 0 01-2.28-.364 1.015 1.015 0 00-1.016.242l-.96.96a9.77 9.77 0 01-3.923-3.922l.952-.958a.97.97 0 00.256-1.015A7.248 7.248 0 015.666 3c0-.551-.448-1-1-1H2.333c-.551 0-1 .449-1 1 0 6.433 5.233 11.667 11.667 11.667zm-10.667-12h2.333A.333.333 0 015 3c0 .851.133 1.687.395 2.48a.315.315 0 01-.085.331L4.006 7.122c1.092 2.152 2.704 3.764 4.866 4.865l1.299-1.3a.344.344 0 01.344-.084A7.89 7.89 0 0013 11c.183 0 .333.15.333.333v2.334c0 .183-.15.333-.333.333C6.934 14 2 9.065 2 3a.333.333 0 01.333-.333z" fill="#43FFD2"/></svg><svg fill="none" viewBox="0 0 18 18" id="search" xmlns="http://www.w3.org/2000/svg"><path d="M15.949 15.55l-3.225-3.224a6.194 6.194 0 10-.398.398l3.225 3.225a.281.281 0 00.398-.398zM2.532 8.157a5.625 5.625 0 115.625 5.625 5.631 5.631 0 01-5.625-5.625z" fill="#fff"/></svg><svg fill="none" viewBox="0 0 25 25" id="watsup" xmlns="http://www.w3.org/2000/svg"><path d="M24.572 5.911a12.79 12.79 0 00-.125-1.549 5.21 5.21 0 00-.438-1.317A4.656 4.656 0 0021.962.997 5.194 5.194 0 0020.653.56a12.716 12.716 0 00-1.561-.127 19.916 19.916 0 00-.64-.012L6.551.417c-.133 0-.42.004-.64.012-.52.01-1.036.052-1.55.125a5.21 5.21 0 00-1.317.438A4.657 4.657 0 00.997 3.04 5.2 5.2 0 00.56 4.348a12.742 12.742 0 00-.129 1.56C.424 6.13.42 6.417.42 6.55l-.002 11.9c0 .133.004.42.012.64.01.519.052 1.036.125 1.55.086.456.234.899.438 1.317a4.657 4.657 0 002.047 2.048c.415.203.855.35 1.309.437.517.074 1.038.117 1.56.127.222.008.508.012.641.012l11.9.002c.133 0 .42-.003.64-.012.519-.01 1.036-.051 1.55-.124.456-.087.899-.235 1.317-.439a4.657 4.657 0 002.049-2.047c.203-.415.35-.855.437-1.308.075-.518.118-1.039.128-1.561.008-.222.012-.508.012-.64l.002-11.9c0-.132-.004-.419-.012-.64zm-11.81 14.996h-.003a8.611 8.611 0 01-4.117-1.05l-4.567 1.198 1.222-4.462a8.615 8.615 0 117.465 4.314z" fill="#43FFD2"/><path d="M12.766 5.13a7.162 7.162 0 00-6.069 10.967l.17.27-.723 2.642 2.71-.71.26.154a7.151 7.151 0 003.645.998h.004a7.161 7.161 0 00.002-14.322l.001.001zm4.21 10.235a2.216 2.216 0 01-1.452 1.023 2.953 2.953 0 01-1.356-.084c-.416-.13-.826-.282-1.226-.455A9.595 9.595 0 019.265 12.6a4.184 4.184 0 01-.88-2.226 2.413 2.413 0 01.754-1.794.791.791 0 01.574-.27c.143 0 .286 0 .412.008.133.006.31-.051.483.37.182.43.612 1.49.665 1.597a.394.394 0 01.018.377 1.47 1.47 0 01-.215.359c-.109.125-.226.28-.323.377-.108.107-.22.223-.095.438a6.485 6.485 0 001.197 1.491c.511.454 1.097.816 1.732 1.069.215.108.34.089.466-.055s.538-.628.682-.843c.144-.215.286-.179.483-.108.197.072 1.257.592 1.472.701.215.109.359.16.412.25.059.346.015.702-.126 1.024z" fill="#43FFD2"/></svg></svg>