<svg width="33" height="69" viewBox="0 0 33 69" fill="none" xmlns="http://www.w3.org/2000/svg">
<path d="M10.68 50.9C10.68 52.06 10.8 52.92 11.04 53.48C11.32 54 11.8 54.36 12.48 54.56C13.2 54.76 14.32 54.86 15.84 54.86H23.52C27.48 54.86 29.82 52.32 30.54 47.24C30.54 47.12 30.64 47.08 30.84 47.12C31.08 47.12 31.2 47.18 31.2 47.3C30.84 50.46 30.66 53.06 30.66 55.1C30.66 55.42 30.6 55.66 30.48 55.82C30.36 55.94 30.12 56 29.76 56H2.16C2.08 56 2.04 55.88 2.04 55.64C2.04 55.4 2.08 55.28 2.16 55.28C3.72 55.28 4.86 55.18 5.58 54.98C6.34 54.78 6.84 54.4 7.08 53.84C7.36 53.24 7.5 52.34 7.5 51.14V23.36C7.5 22.16 7.36 21.28 7.08 20.72C6.84 20.16 6.34 19.78 5.58 19.58C4.86 19.34 3.72 19.22 2.16 19.22C2.08 19.22 2.04 19.1 2.04 18.86C2.04 18.62 2.08 18.5 2.16 18.5L5.1 18.56C6.78 18.64 8.1 18.68 9.06 18.68C10.14 18.68 11.52 18.64 13.2 18.56L16.02 18.5C16.1 18.5 16.14 18.62 16.14 18.86C16.14 19.1 16.1 19.22 16.02 19.22C14.46 19.22 13.3 19.34 12.54 19.58C11.82 19.78 11.32 20.18 11.04 20.78C10.8 21.34 10.68 22.22 10.68 23.42V50.9Z" fill="#8A8686"/>
<path d="M29.55 34.1299C29.55 34.2299 29.45 34.2799 29.25 34.2799C29.0833 34.2799 29 34.2299 29 34.1299C29 32.4299 28.55 31.0799 27.65 30.0799C26.75 29.0799 25.5667 28.5799 24.1 28.5799H20.65C19.4167 28.5799 18.5 28.6632 17.9 28.8299C17.3 28.9965 16.8833 29.2965 16.65 29.7299C16.4167 30.1632 16.3 30.8299 16.3 31.7299V42.7299H21.75C23.45 42.7299 24.65 42.4799 25.35 41.9799C26.05 41.4465 26.4 40.5465 26.4 39.2799C26.4 39.2132 26.5 39.1799 26.7 39.1799C26.9 39.1799 27 39.2132 27 39.2799L26.95 43.2299C26.95 44.1965 26.9667 44.9132 27 45.3799L27.05 47.7299C27.05 47.7965 26.95 47.8299 26.75 47.8299C26.55 47.8299 26.45 47.7965 26.45 47.7299C26.45 46.2299 26.0833 45.1799 25.35 44.5799C24.65 43.9799 23.3833 43.6799 21.55 43.6799H16.3V54.6299C16.3 55.6965 16.45 56.4799 16.75 56.9799C17.05 57.4465 17.6167 57.7799 18.45 57.9799C19.3167 58.1799 20.6833 58.2799 22.55 58.2799C22.65 58.2799 22.7 58.3799 22.7 58.5799C22.7 58.7799 22.65 58.8799 22.55 58.8799C21.1833 58.8799 20.1167 58.8632 19.35 58.8299L15 58.7799L11.7 58.8299C11.1 58.8632 10.2667 58.8799 9.2 58.8799C9.13333 58.8799 9.1 58.7799 9.1 58.5799C9.1 58.3799 9.13333 58.2799 9.2 58.2799C10.5 58.2799 11.45 58.1965 12.05 58.0299C12.6833 57.8632 13.1 57.5465 13.3 57.0799C13.5333 56.5799 13.65 55.8299 13.65 54.8299V31.6799C13.65 30.6799 13.5333 29.9465 13.3 29.4799C13.1 29.0132 12.6833 28.6965 12.05 28.5299C11.45 28.3299 10.5 28.2299 9.2 28.2299C9.13333 28.2299 9.1 28.1299 9.1 27.9299C9.1 27.7299 9.13333 27.6299 9.2 27.6299H29C29.3 27.6299 29.45 27.7799 29.45 28.0799L29.55 34.1299Z" fill="white"/>
</svg>
