<?xml version="1.0" encoding="utf-8"?><svg viewBox="0 0 299 294" xmlns="http://www.w3.org/2000/svg" xmlns:xlink="http://www.w3.org/1999/xlink"><style>:root>svg{display:none}:root>svg:target{display:block}</style><svg fill="none" viewBox="0 0 30 30" id="cart" xmlns="http://www.w3.org/2000/svg"><path d="M27.538 24.22l-1.666-15a1.405 1.405 0 00-1.398-1.25h-4.34a5.155 5.155 0 00-10.268 0h-4.34A1.405 1.405 0 004.13 9.22l-1.666 15a1.406 1.406 0 001.397 1.562h22.28a1.407 1.407 0 001.398-1.562zM15 4.22a4.224 4.224 0 014.192 3.75h-8.384A4.224 4.224 0 0115 4.22zm11.49 20.468a.463.463 0 01-.35.156H3.86a.469.469 0 01-.466-.52l1.667-15a.468.468 0 01.466-.417h4.317v3.28a.469.469 0 10.938 0v-3.28h8.437v3.28a.469.469 0 10.938 0v-3.28h4.317a.468.468 0 01.466.417l1.666 15a.463.463 0 01-.116.364z" fill="#fff"/></svg><svg fill="none" viewBox="0 0 18 18" id="close" xmlns="http://www.w3.org/2000/svg"><path d="M13.43 4.062l.508.509-9.367 9.367-.51-.509 9.368-9.367z" fill="#7C7C7C"/><path d="M4.57 4.062l9.368 9.367-.509.51L4.062 4.57l.509-.51z" fill="#7C7C7C"/></svg><svg fill="none" viewBox="0 0 25 25" id="instagram" xmlns="http://www.w3.org/2000/svg"><path d="M12.488 8.326a4.174 4.174 0 00-4.165 4.166 4.174 4.174 0 004.165 4.165 4.174 4.174 0 004.166-4.165 4.174 4.174 0 00-4.166-4.166zm12.494 4.166c0-1.725.016-3.435-.081-5.157-.097-2 .05-4.381-1.413-5.844C22.023.026 19.648.18 17.648.082c-1.725-.097-3.435-.081-5.156-.081-1.725 0-3.435-.016-5.157.081-2 .097-4.384-.053-5.846 1.41C.023 2.956.179 5.334.082 7.334-.015 9.06.001 10.77.001 12.492c0 1.721-.016 3.434.081 5.156.097 2-.056 4.38 1.407 5.843 1.465 1.466 3.846 1.313 5.846 1.41 1.725.097 3.435.081 5.157.081 1.725 0 3.434.016 5.156-.081 2-.097 4.378.053 5.84-1.41 1.466-1.465 1.316-3.843 1.413-5.843.1-1.722.081-3.431.081-5.156zM12.488 18.9a6.4 6.4 0 01-6.409-6.41 6.4 6.4 0 016.41-6.409 6.4 6.4 0 016.409 6.41 6.4 6.4 0 01-6.41 6.409zM19.16 7.317a1.495 1.495 0 01-1.497-1.497c0-.828.67-1.497 1.497-1.497a1.495 1.495 0 011.384 2.07 1.494 1.494 0 01-1.384.924z" fill="#43FFD2"/></svg><svg fill="none" viewBox="0 0 12 12" id="loading" xmlns="http://www.w3.org/2000/svg"><path d="M6.708 2.364H5.292v-3.18h1.416v3.18zm0 8.82H5.292v-3.18h1.416v3.18zM8.82 5.892V4.476H12v1.416H8.82zM0 4.476h3.18v1.416H0V4.476zm3.504-.792L1.26 1.44l.996-.996L4.5 2.688l-.996.996zm6.24 6.24L7.5 7.68l.996-.996 2.244 2.244-.996.996zm-7.488 0l-.996-.996 2.244-2.244.996.996-2.244 2.244z" fill="#040A0A"/></svg><svg fill="none" viewBox="0 0 12 12" id="loadingWhite" xmlns="http://www.w3.org/2000/svg"><path d="M6.708 2.364H5.292v-3.18h1.416v3.18zm0 8.82H5.292v-3.18h1.416v3.18zM8.82 5.892V4.476H12v1.416H8.82zM0 4.476h3.18v1.416H0V4.476zm3.504-.792L1.26 1.44l.996-.996L4.5 2.688l-.996.996zm6.24 6.24L7.5 7.68l.996-.996 2.244 2.244-.996.996zm-7.488 0l-.996-.996 2.244-2.244.996.996-2.244 2.244z" fill="#fff"/></svg><svg fill="none" viewBox="0 0 18 18" id="mob-menu-close" xmlns="http://www.w3.org/2000/svg"><path d="M13.43 4.062l.508.509-9.367 9.367-.51-.509 9.368-9.367z" fill="#43FFD2"/><path d="M4.57 4.062l9.368 9.367-.509.51L4.062 4.57l.509-.51z" fill="#43FFD2"/></svg><svg fill="none" viewBox="0 0 24 24" id="phone" xmlns="http://www.w3.org/2000/svg"><path d="M19.99 24h-16c-2 0-2.526-.293-3.112-.879C.293 22.535-.01 22 0 20V4C0 2 .293 1.465.878.879 1.464.293 1.99 0 3.99 0h16c.828 0 2.014.012 3 1 .987.988.987 2.172.987 3v16c.013 2-.293 2.535-.878 3.121-.586.586-1.109.879-3.109.879zM7.493 9V6.75c0-.422-.129-.836-.386-1.242-.258-.406-.543-.696-.855-.867-.312-.172-.554-.18-.726-.024l-1.71 1.735c-.467.468-.733 1.097-.795 1.886-.063.79.058 1.649.363 2.578.304.93.792 1.914 1.463 2.954a18.08 18.08 0 002.412 2.964 18.067 18.067 0 002.962 2.414c1.038.672 2.021 1.165 2.95 1.477.929.313 1.787.438 2.576.375.788-.063 1.416-.328 1.884-.797l1.733-1.734c.156-.157.148-.395-.023-.715-.172-.32-.46-.61-.867-.867-.405-.258-.82-.387-1.24-.387h-2.248l-1.522.938c-.703-.188-1.57-.696-2.6-1.524a18.105 18.105 0 01-2.786-2.789c-.827-1.031-1.334-1.898-1.522-2.602L7.493 9zm8.944 3.75l1.522.258c-.125-1.875-.85-3.477-2.177-4.805-1.327-1.328-2.92-2.055-4.777-2.18l.234 1.524a5.838 5.838 0 013.489 1.71 5.848 5.848 0 011.71 3.493zM11.52 9.117l.281 1.688c.609.297 1.07.758 1.382 1.383l1.685.28a4.49 4.49 0 00-1.205-2.144 4.485 4.485 0 00-2.143-1.207zM10.49 3l.258 1.523c1.56.032 3 .442 4.32 1.23a9.02 9.02 0 013.16 3.165 8.628 8.628 0 011.23 4.324l1.522.258c0-1.422-.277-2.781-.832-4.078-.554-1.297-1.299-2.414-2.236-3.352-.936-.937-2.052-1.683-3.348-2.238A10.245 10.245 0 0010.49 3z" fill="#43FFD2"/></svg><svg fill="none" viewBox="0 0 16 16" id="phone-light" xmlns="http://www.w3.org/2000/svg"><path d="M13 14.667c.551 0 1-.449 1-1v-2.334c0-.551-.449-1-1-1a7.26 7.26 0 01-2.28-.364 1.015 1.015 0 00-1.016.242l-.96.96a9.77 9.77 0 01-3.923-3.922l.952-.958a.97.97 0 00.256-1.015A7.248 7.248 0 015.666 3c0-.551-.448-1-1-1H2.333c-.551 0-1 .449-1 1 0 6.433 5.233 11.667 11.667 11.667zm-10.667-12h2.333A.333.333 0 015 3c0 .851.133 1.687.395 2.48a.315.315 0 01-.085.331L4.006 7.122c1.092 2.152 2.704 3.764 4.866 4.865l1.299-1.3a.344.344 0 01.344-.084A7.89 7.89 0 0013 11c.183 0 .333.15.333.333v2.334c0 .183-.15.333-.333.333C6.934 14 2 9.065 2 3a.333.333 0 01.333-.333z" fill="#43FFD2"/></svg><svg fill="none" viewBox="0 0 11 61" id="pointingArrow" xmlns="http://www.w3.org/2000/svg"><path d="M9.098 59.602l.42-.271-.42.27zM10 61l-.285-5.767-4.851 3.13L10 61zM9.588.716a53.301 53.301 0 00-.91 59.157l.84-.542a52.301 52.301 0 01.894-58.047L9.588.716z" fill="#43FFD2"/></svg><svg fill="none" viewBox="0 0 18 18" id="search" xmlns="http://www.w3.org/2000/svg"><path d="M15.949 15.55l-3.225-3.224a6.194 6.194 0 10-.398.398l3.225 3.225a.281.281 0 00.398-.398zM2.532 8.157a5.625 5.625 0 115.625 5.625 5.631 5.631 0 01-5.625-5.625z" fill="#fff"/></svg><svg fill="none" viewBox="0 0 257 194" id="signature" xmlns="http://www.w3.org/2000/svg"><path d="M22.955 143.176l-.783.165c-1.129.076-1.575-.484-1.147-1.556.575-1.921 1.842-3.661 3.365-4.964 5.656-4.958 11.948-9.233 18.149-13.162 1.153-.735 1.613-1.65 2.23-2.598 3.266-5.434 6.03-10.925 8.38-16.819 2.893-7.972 5.562-16.223 6.567-24.613.63-5.53.788-10.96 1.104-16.424.16-5.43-.184-10.918-.873-16.496-.284-2.884-.41-5.801-1.04-8.776l-.132-.626c.18-.692-.364-1.721.418-1.887.627-.133.735 1.153.867 1.779.738 4.26 1.286 8.396 1.554 12.755.202 4.045.404 8.091.26 12.047-.12 3.296-.117 6.403-.27 9.542-.268 4.146-.85 8.357-1.463 12.412-.785 5.563-2.453 10.822-4.277 16.114-1.824 5.293-3.837 10.461-6.42 15.26-.798 1.641-1.818 3.001-2.649 4.485-.247.38-.65.792-.238 1.196.223.28.627-.133.906-.356 4.398-2.402 8.796-4.805 13.227-7.05 4.745-2.313 9.711-4.345 14.456-6.657 3.401-1.701 6.68-3.212 10.304-4.633 5.939-2.075 11.745-4.775 17.908-6.57 1.845-.554 3.88-.984 5.626-2.008.56-.446 1.722-.364 2.537-.373.313-.067.849.147.916.46-.025.66-.371.57-.807.825-8.074 2.035-15.792 4.977-23.634 8.108-6.342 2.487-12.585 5.443-18.862 8.243-3.435 1.545-6.87 3.089-10.27 4.79l-9.636 5.473c-1.467.801-2.933 1.602-4.209 2.526-1.03.545-1.713 1.18-2.173 2.095-1.942 3.191-4.329 5.823-6.905 8.33-3.384 3.333-6.834 6.352-11.174 8.252-.28.223-.593.289-.873.512l-.94.199zm.394-1.229c.47-.099 1.22-.421 1.812-.71 3.368-1.858 6.201-3.929 8.901-6.626 2.14-2.252 4.248-4.66 6.165-7.192.28-.223.716-.479.46-.915-.379-.247-.782.165-1.062.388-2.586 1.692-5.139 3.54-7.691 5.389-3.08 2.45-6.225 4.588-8.67 7.722-.403.412-.806.825-.83 1.484-.057.503.165.783.915.46zm59.444-61.313c-1.096.232-2.703-.41-3.215-1.282-.479-.717-.563-2.661-.07-3.42.247-.38.684-.635 1.063-.388.536.213.29.593.199.939-.304.882-.698 2.11.406 2.694 1.105.584 1.912-.24 2.752-.91.56-.445.93-1.014 1.333-1.426.404-.413.337-.726-.322-.75-.94.199-1.978-.072-2.333-.978-.355-.906.452-1.73 1.102-2.523 1.613-1.65 3.467-1.388 4.68.482.257.436.512.873.982.773 1.945-.084 3.947-.671 5.981-1.102.627-.132 1.376-.454 2.159-.62.156-.033.593-.289.692.18.067.314-.247.38-.526.603-2.908.942-5.594 2.164-8.387 2.101-.816.01-1.343.611-1.68 1.337-.83 1.484-1.917 2.532-3.194 3.456-.56.446-.996.701-1.622.834zm17.656 1.334c-2.505.53-4.467-1.017-4.181-3.531.228-2.01.647-3.898.908-5.753.18-.692.395-1.228 1.243-1.08.536.213.512.873.299 1.408-.23 2.011-.927 4.121-.81 6.223-.015 1.475.554 1.845 2.119 1.514 1.533-.488 2.743-1.725 3.986-2.806 1.523-1.304 1.267-1.74 2.345-3.603.37-.57.46-.916-.298-1.41-.759-.493-.924-1.276-.464-2.19.494-.76.954-1.674 1.415-2.59.337-.725.897-1.17 1.779-.867 1.005.115 1.484.831 1.37 1.837.099.47.042.972-.205 1.351-.147.849.232 1.096.825.807 1.342-.611 2.718-1.066 4.217-1.71 2.125-.777 4.218-1.71 6.343-2.487.313-.066.749-.322.816-.01.289.594-.371.57-.527.603-4.118 2.18-8.236 4.36-12.52 5.756-.782.166-.996.702-1.366 1.27-1.942 3.192-2.583 4.8-5.918 6.813-.28.223-.75.322-1.376.455zm7.077-9.838c.626-.133 1.661-2.968 1.405-3.405-.222-.28-.379-.247-.659-.024-.65.792-1.267 1.74-1.538 2.779-.057.502.322.75.792.65zm33.944-9.145c-3.549 2.55-7.287 4.976-11.092 7.09-1.499.644-2.809 1.412-4.308 2.056-1.376.455-2.694.407-4.079.045-1.351-.204-1.896-1.234-2.318-2.453a1.22 1.22 0 01.148-.849c.83-1.484 1.818-3.001 3.217-4.115.931-1.014 2.216-1.123 3.074-.16.668.84.554 1.846-.376 2.86-.963.858-2.116 1.593-3.269 2.327-.313.067-.783.166-.717.479.1.47.479.716.825.807 1.039.27 2.134.039 3.041-.317 2.874-1.099 5.493-2.634 8.269-4.202 2.059-1.09 4.241-2.37 6.3-3.46.437-.256.75-.322 1.252-.265l.033.157zm6.272 6.36c-1.286.108-2.448.027-3.306-.936-.891-1.12-.464-2.192.12-3.297.461-.915.888-1.987 1.505-2.935.091-.346.214-.536-.009-.816-.346-.09-.469.1-.593.29-1.466.8-2.932 1.601-4.431 2.245a3.285 3.285 0 01-1.722.365c-1.508-.172-1.986-.888-1.469-2.306 1.036-2.836 2.64-5.301 4.591-7.677.123-.19.403-.412.526-.602.56-.445 1.063-.388 1.788-.051.536.214.512.873.455 1.376-.328 1.54-.846 2.959-1.363 4.377-.091.346-.494.758-.115 1.005.223.28.66.024.939-.199 1.03-.544 2.026-1.246 3.056-1.79.593-.29 1.219-.422 1.665.138.602.526.198.939-.172 1.508-1.391 1.93-2.558 4.139-3.413 6.282-.214.536-.461.915-.205 1.352.446.56 1.072.427 1.541.328 2.126-.777 3.962-2.146 5.608-3.64 1.524-1.303 3.08-2.45 4.191-4.157.37-.57.996-.702 1.432-.957.313-.067.47-.1.503.057.033.156.066.313-.057.502-3.004 3.58-5.975 7.316-10.316 9.215-.313.067-.626.133-.749.323zm-7.951-6.659c.783-.165.774-.981 1.177-1.394 1.3-1.583 1.875-3.504 2.64-5.3.123-.19.213-.537-.133-.627-.189-.123-.313.066-.436.256-1.268 1.74-2.601 3.167-3.332 5.12-.247.38-.304.883-.362 1.385-.09.346.133.626.446.56zm-24.664 113.566c-1.129.075-2.225.307-3.197.349-4.639.491-7.27-1.896-7.291-6.634.054-3.61.99-6.915 2.585-10.196 2.82-5.994 6.21-11.617 10.547-16.624 4.988-5.798 10.768-10.946 16.547-16.094 4.01-3.465 8.399-6.683 12.821-9.745.716-.478 1.243-1.08 1.234-1.896.358-4.492.872-9.016.917-13.441a12.185 12.185 0 00-.226-3.387c-.066-.313-.322-.75.148-.849.469-.1.692.18.758.494.389 1.063.621 2.158.663 3.131-.078 4.268-.346 8.413-.927 12.625.066.313-.304.882.232 1.096.379.246.783-.166 1.096-.232a373.451 373.451 0 0115.614-9.682c.156-.033.28-.223.593-.289.313-.066.502.057.725.337.223.28-.057.503-.18.692-.56.446-.964.858-1.433.958-5.214 2.411-9.726 5.819-14.494 8.79-2.059 1.09-2.544 2.665-2.773 4.676-.595 5.686-1.694 11.315-3.452 16.921-1.363 4.377-2.883 8.787-4.782 12.95-2.023 4.353-4.235 8.583-7.05 12.286-3.465 4.494-7.408 8.272-12.176 11.244-2.059 1.09-4.151 2.023-6.499 2.52zm-.702-.997c1.755-.207 3.288-.695 4.787-1.339 3.558-1.735 6.481-4.152 9.304-7.039 3.26-3.143 5.918-6.813 8.04-10.696 4.705-8.682 8.181-17.758 10.083-27.319.623-3.239 1.123-6.289 1.4-9.618.123-.19.213-.536-.166-.783s-.626.133-.906.356c-4.142 2.838-8.061 5.957-12.104 9.266-5.006 4.166-9.599 8.736-14.16 13.463-2.947 3.076-5.448 6.713-7.949 10.349-1.605 2.466-2.986 5.211-4.368 7.957a25.026 25.026 0 00-2.808 9.916c-.301 3.989 1.605 6.039 5.527 6.026 1.162.082 2.225-.307 3.32-.539zm72.977-97.212c.437-.256.816-.01.916.46.256.437-.214.536-.651.792-8.624 3.297-17.281 6.437-25.873 9.89-5.123 2.066-10.024 4.41-15.114 6.633-7.619 3.41-14.982 7.258-22.122 11.386-8.92 4.994-17.649 10.112-26.057 15.98-1.59.99-2.989 2.104-4.801 2.815-.123.189-.403.412-.626.132-.223-.28.214-.536.337-.725.56-.446 1.243-1.081 1.96-1.56 5.575-3.796 11.183-7.436 17.013-10.796 6.984-4.094 13.968-8.188 21.018-11.97a340.07 340.07 0 0123.54-10.868c8.368-3.733 17.182-6.906 25.65-10.17 1.656-.677 3.155-1.322 4.81-2zm-31.167 58.765c-.901-1.936.144-3.956.373-5.967.595-5.686 1.917-11.036 3.741-16.328.878-2.802 2.137-5.358 3.205-8.037 2.17-5.202 4.53-10.28 6.857-15.516 2.36-5.078 5.033-10.223 7.739-15.211 1.998-3.694 3.997-7.388 6.342-10.991 1.11-1.707 2.065-3.381 3.398-4.808.247-.38.65-.792 1.054-1.204.84-.669 1.622-.834 2.537-.373.759.493.925 1.276.934 2.092.003 3.106-.843 6.065-1.845 9.058-.936 3.305-2.062 6.487-3.534 9.579-1.192 2.868-2.351 5.894-3.889 8.672-1.077 1.864-1.932 4.007-2.943 6.184-1.472 3.091-3.101 6.216-4.54 9.464-3.304 7.569-7.714 14.553-11.934 21.66-1.695 2.812-3.423 5.467-5.464 8.189-.897 1.171-.96 3.964-.035 5.24.635.684 1.294.708 2.044.386 1.375-.455 2.462-1.503 3.392-2.517 2.264-2.442 4.338-5.006 6.568-7.604.124-.19.337-.726.717-.479.379.247-.024.659-.304.882-2.231 2.598-4.082 5.443-6.123 8.164-.93 1.015-1.893 1.873-3.079 2.451-2.529 1.189-4.392.111-5.211-2.986zm34.885-77.05c-.165-.784-.858-.964-1.541-.329-1.927 1.716-2.938 3.893-4.172 5.79a259.681 259.681 0 00-6.836 11.749c-2.056 4.196-4.301 8.27-6.357 12.466a397.882 397.882 0 00-6.487 14.946c-2.137 5.359-4.43 10.75-5.875 16.289-.689 2.926-1.222 5.819-1.754 8.712-.091.346-.304.882.231 1.096.503.057.56-.446.807-.825 2.378-3.447 4.533-7.174 6.689-10.901 3.702-5.689 6.679-11.716 9.812-17.776 1.933-4.007 3.832-8.17 5.921-12.21 3.528-7.288 6.709-14.666 8.819-22.472.542-2.078.894-4.278.743-6.536zm-17.862 73.284c-1.096.232-2.704-.409-3.215-1.282-.479-.716-.564-2.661-.07-3.42.247-.379.683-.635 1.063-.388.536.214.289.593.198.939-.304.882-.698 2.11.407 2.694 1.105.584 1.912-.241 2.751-.909.56-.445.93-1.014 1.334-1.427.403-.412.337-.725-.322-.749-.939.198-1.978-.072-2.333-.979-.356-.906.451-1.731 1.101-2.522 1.614-1.65 3.468-1.388 4.681.481.256.437.512.873.982.774 1.944-.085 3.946-.672 5.981-1.102.626-.133 1.376-.455 2.159-.621.156-.033.593-.289.692.181.066.313-.247.379-.527.602-2.908.942-5.593 2.165-8.386 2.102-.816.009-1.343.611-1.68 1.336-.831 1.485-1.918 2.532-3.194 3.456-.56.446-.996.702-1.622.834zm38.086-12.638c-1.656.678-3.278 1.512-4.934 2.189-.906.355-1.622.834-2.562 1.033-1.565.331-2.462 1.502-3.169 2.797-.732 1.953-1.472 3.091-3.185 4.271-.716.479-1.622.834-2.628.72-1.039-.271-1.921-.575-2.186-1.827-.132-.626-.355-.906-.882-.304-.246.379-.65.792-.93 1.014-1.086 1.048-2.092.934-3.23.193-.379-.247-.635-.683-.578-1.186.205-1.352.22-2.827.738-4.244.213-.536.427-1.072 1.152-.735.726.337.792.65.612 1.343-.461.915-.419 1.887-.566 2.736-.09.346-.214.536.132.626.19.123.313-.066.437-.256 1.243-1.081 2.297-2.285 3.037-3.423.37-.569.807-.825 1.376-.454.692.18.791.65.578 1.186-.428 1.071-.196 2.167.003 3.106.132.626.512.873.915.461 2.149-1.436 3.359-2.673 4.305-5.163.057-.503-.166-.783-.512-.873-.759-.494-1.204-1.054-1.214-1.869-.009-.816.675-1.451 1.524-1.304.849.148 1.697.295 2.209 1.168.356.906 1.015.93 1.764.608 2.439-.843 4.844-1.843 7.159-2.496l.469-.099c.313-.066 1.063-.389 1.195.238.133.626-.716.478-1.029.544zm20.591-5.011c-3.549 2.55-7.288 4.977-11.093 7.09-1.499.644-2.808 1.412-4.307 2.056-1.376.455-2.694.407-4.079.046-1.352-.205-1.897-1.234-2.318-2.453-.066-.314.024-.66.147-.849.831-1.485 1.818-3.002 3.218-4.116.93-1.014 2.216-1.123 3.074-.159.668.839.554 1.845-.377 2.859-.963.858-2.116 1.593-3.269 2.328-.313.066-.782.165-.716.478.099.47.479.717.825.807 1.038.271 2.134.039 3.04-.316 2.875-1.099 5.494-2.635 8.269-4.203 2.059-1.09 4.242-2.369 6.301-3.459.436-.256.749-.322 1.252-.265l.033.156zm6.271 6.36c-1.285.108-2.447.027-3.305-.936-.891-1.12-.464-2.192.12-3.296.461-.916.888-1.987 1.505-2.936.09-.346.214-.535-.009-.815-.346-.091-.47.099-.593.289-1.466.801-2.932 1.601-4.431 2.246a3.288 3.288 0 01-1.722.364c-1.508-.172-1.987-.888-1.469-2.306 1.035-2.836 2.64-5.301 4.59-7.676.124-.19.404-.413.527-.602.56-.446 1.063-.389 1.788-.052.536.214.512.873.455 1.376-.328 1.541-.846 2.959-1.364 4.377-.09.346-.493.759-.114 1.005.223.28.659.025.939-.198 1.03-.545 2.026-1.247 3.056-1.792.593-.289 1.219-.421 1.664.139.602.527.199.939-.171 1.508-1.391 1.93-2.559 4.139-3.414 6.283-.213.536-.46.915-.204 1.351.445.56 1.071.428 1.541.328 2.125-.776 3.961-2.146 5.608-3.639 1.523-1.304 3.079-2.451 4.19-4.158.37-.569.997-.701 1.433-.957.313-.066.47-.1.503.057.033.157.066.313-.057.503-3.005 3.579-5.975 7.315-10.316 9.215-.313.066-.626.132-.75.322zm-7.95-6.658c.782-.166.773-.982 1.177-1.394 1.3-1.584 1.875-3.504 2.639-5.302.124-.189.214-.535-.132-.626-.19-.123-.313.067-.437.256-1.267 1.74-2.6 3.167-3.332 5.121-.247.379-.304.882-.361 1.385-.09.346.133.626.446.56z" fill="#1F3A3A"/></svg><svg fill="none" viewBox="0 0 299 294" id="signature2" xmlns="http://www.w3.org/2000/svg"><path d="M90.91 45.534c.151-.05.505 0 .809-.101 1.923-.304 2.985.354 3.036 2.53.152 1.466.051 3.187-.252 4.806-1.011 4.048-1.972 8.247-2.983 12.295-1.264 4.807-2.933 9.412-4.552 14.168-1.365 3.997-2.883 8.045-4.35 12.245-.91 2.834-2.174 5.617-3.236 8.5-.96 2.683-2.074 5.415-3.035 8.097-1.112 2.732-2.225 5.464-3.135 8.298-2.984 9.26-6.322 18.975-9.963 28.285-.203.405-.253.759-.253 1.265-.05.354.05.658.455.86.456.354.456-.152.76-.253.91-.81 2.124-.709 2.985.354.404.708.86 1.568 1.265 2.276.557 1.164 1.265 1.265 2.327.405 1.366-.962 2.176-2.581 3.086-3.897 1.416-2.327 3.187-4.099 5.059-6.072.253-.253.657-.557.961-.152.253.253-.152.556-.455.658-2.024 2.53-3.49 5.212-5.311 7.843-.506 1.012-1.215 1.923-1.973 2.682-2.024 1.518-4.352 1.114-5.465-1.214-.354-.556-.456-1.366-.962-1.365-.708-.102-.708.91-1.062 1.366-.455.658-.657 1.568-.708 2.429 0 .505.051 1.163-.81 1.113-.657.05-.809-.405-1.011-1.012-.71-4.149-1.014-8.095-.71-12.244.2-5.971.959-11.789 1.363-17.659.606-5.768 1.313-11.738 2.274-17.456.607-3.238 1.567-6.426 2.376-9.563 1.619-5.768 3.44-11.435 5.614-17.052 2.225-5.465 4.248-11.03 6.879-16.293 2.276-4.807 4.805-9.36 7.739-13.713.809-1.113 1.922-1.822 3.237-2.429zm-27.966 94.671c.304-.102.405-.304.506-.507 1.72-4.452 3.591-8.956 5.108-13.51 2.478-7.235 4.855-14.269 7.587-21.251 3.742-9.513 7.485-19.026 10.67-28.69 2.176-6.629 4.35-13.257 5.766-20.138.556-2.885 1.314-5.667 1.061-8.45-.101-1.316-.962-1.872-2.176-1.467a5.77 5.77 0 00-2.732 1.923c-2.276 3.29-4.148 6.78-6.02 10.272-2.832 5.161-4.905 10.575-7.13 16.04-1.822 4.15-3.238 8.5-4.704 12.7-1.366 3.998-2.023 8.096-3.186 12.195-2.023 7.084-2.68 14.218-3.235 21.656-.454 5.211-1.212 10.524-1.515 15.685.05 1.163-.05 2.378 0 3.542zm39.67-8.171c-.911.304-1.468.658-2.125 1.215-3.592 3.391-7.994 5.871-12.243 8.3-1.417.81-2.985 1.164-4.402-.05-.456-.354-.557-.152-.76.253-.303.607-.758 1.265-1.01 2.024-.81 1.113-1.772 1.265-2.784.253-1.518-1.517-1.72-3.642-.051-5.211.506-.506.961-1.164 1.467-1.67.506-.506 1.012-.506 1.467-.152.608.304.86.557.203 1.113-1.012.506-1.568 1.367-2.327 2.126-.203.404-.405.809-.405 1.315.152.456.304.911.658.961.607.304.557-.354.658-.556.91-1.316 1.619-2.733 2.377-3.998.304-.607.506-1.012 1.265-.759.557.152.709.607.607 1.316-.1.708-.505 1.518.153 1.973.81.404 1.517 0 2.226-.405 4.654-2.227 8.904-5.163 13.204-7.946.557-.354 1.012-1.012 1.771-.253l.051.151zm2.843 9.341c-2.428.81-4.554-.506-4.554-3.035 0-2.024.202-3.947.252-5.819.101-.708.253-1.265 1.113-1.215.557.152.607.81.456 1.366 0 2.024-.455 4.2-.101 6.274.152 1.468.76 1.771 2.277 1.265 1.468-.658 2.53-2.024 3.643-3.239 1.366-1.467 1.062-1.872 1.922-3.845.303-.608.354-.962-.456-1.366-.809-.405-1.062-1.164-.708-2.125.404-.81.758-1.771 1.112-2.733.253-.759.759-1.265 1.67-1.063 1.012 0 1.568.658 1.569 1.67.151.455.151.961-.051 1.366-.05.86.355 1.062.911.708 1.265-.759 2.58-1.366 3.997-2.176 2.023-1.012 3.997-2.176 6.02-3.189.304-.101.709-.404.81-.101.354.557-.304.607-.455.658-3.845 2.632-7.69 5.263-11.788 7.136-.759.253-.911.81-1.214 1.417-1.568 3.39-2.023 5.06-5.109 7.438-.253.253-.709.405-1.316.608zm5.918-10.576c.607-.202 1.315-3.137 1.012-3.542-.253-.253-.405-.202-.658.051-.557.86-1.062 1.872-1.214 2.935 0 .506.405.708.86.556zm32.692-12.927c-3.238 2.935-6.678 5.769-10.219 8.299-1.417.81-2.631 1.721-4.047 2.531-1.316.607-2.631.709-4.048.507-1.366-.051-2.024-1.012-2.581-2.176a1.224 1.224 0 01.051-.86c.657-1.568 1.467-3.188 2.731-4.453.81-1.113 2.075-1.366 3.036-.506.759.759.759 1.771-.05 2.884-.86.961-1.923 1.822-2.985 2.682-.303.101-.759.253-.658.557.152.455.557.657.911.708 1.063.151 2.125-.203 2.985-.658 2.732-1.418 5.161-3.239 7.741-5.112 1.922-1.316 3.946-2.834 5.868-4.15.405-.303.709-.405 1.215-.405l.05.152zm67.936-22.32c-.911.304-1.467.658-2.125 1.215-3.592 3.39-7.993 5.87-12.243 8.3-1.417.809-2.985 1.164-4.402-.05-.455-.354-.557-.152-.759.253-.303.607-.759 1.265-1.011 2.024-.81 1.113-1.771 1.265-2.783.253-1.518-1.517-1.721-3.642-.052-5.211.506-.506.962-1.164 1.467-1.67.506-.506 1.012-.506 1.468-.152.607.303.86.556.202 1.113-1.012.506-1.568 1.366-2.327 2.125-.202.405-.405.81-.404 1.316.151.455.303.911.657.961.608.304.557-.354.658-.556.911-1.316 1.619-2.733 2.378-3.998.303-.607.505-1.012 1.264-.759.557.152.709.607.608 1.315-.101.709-.506 1.518.152 1.974.809.404 1.518-.001 2.226-.405 4.655-2.227 8.904-5.163 13.204-7.946.557-.355 1.012-1.012 1.771-.254l.051.152zm1.274.587c.758-.758 1.315-1.619 2.225-2.428.253-.254.658-.557 1.113-.709 1.366-.456 1.771-.253 2.176.961.456 1.366.608 1.315 1.771.759 1.569-.86 2.833-2.126 3.946-3.34.354-.456.81-1.114 1.417-.81.455.354 0 1.012-.354 1.467-1.315 1.62-2.782 3.29-4.705 4.1-1.568.86-2.783.253-3.592-1.164-.355-.556-.608-.303-1.012 0-1.063.86-1.67 2.075-2.479 3.188-.405.81-1.012 1.518-1.416 2.328-.355.455-.962.658-1.569.354-.607-.303-.607-.809-.456-1.366.405-1.315.86-2.479.556-3.896-.05-.657.81-1.113 1.468-1.164.657-.05.708.607.708 1.113.051.152-.05.355.203.608zm32.305-12.292c-.759 1.266-1.619 2.227-2.479 3.188-2.529 3.037-6.424 7.54-8.903 10.728-.202.405-.556.86-.556 1.366.203 4.149-.252 8.349-.555 12.498-.202 2.934-.353 6.021-1.061 8.956-.809 4.149-1.567 8.449-3.135 12.346-.759 2.277-1.163 4.604-2.124 6.78-1.821 3.643-3.541 7.59-5.362 11.233-1.365 2.48-2.68 5.111-4.046 7.59-1.467 2.682-3.187 5.111-4.907 7.54-3.187 4.605-6.576 9.108-10.674 13.005-1.669 1.569-3.389 2.986-5.362 4.15-4.098 2.378-7.488.304-8.45-3.591-1.063-4.2-.204-8.197.504-12.144.758-3.795 2.124-7.286 3.287-10.878 2.023-5.566 5.007-10.778 7.789-16.091 2.732-5.465 6.323-10.374 10.066-15.333 5.11-6.932 10.674-13.511 16.239-20.089 1.619-1.721 3.187-3.593 4.957-5.364.759-.759 1.113-1.72.911-2.834-.557-1.67-.76-3.288-1.114-4.857-.101-.303-.102-.81-.607-.809-.304.101-.355.455-.405.81-.101.202-.202.404-.152.556-.303 1.113-.607 2.227-1.973 2.176-1.518 0-2.58-.657-3.036-2.023a1.365 1.365 0 01-.354-1.063c-.253-.759-.051-1.163.759-1.265.657-.05 1.214.101 1.163.961.051.658.051 1.67.76 1.771.708.101.657-1.063.809-1.62.607-1.214 1.062-2.377 1.517-3.541.152-.557.405-.81.961-.658.506 0 .911.202 1.114.81.81 1.922 1.468 3.895 1.67 6.02l.051.152c.202.607.152 1.467.759 1.77.759.254 1.012-.505 1.467-1.163 3.845-4.656 6.728-7.641 9.713-10.83.101-.202.253-.252.759-.253zm-52.149 99.532c2.226-.911 3.744-1.923 5.312-3.29 2.428-2.328 4.806-4.807 6.93-7.54 2.985-3.694 5.615-7.438 8.195-11.335 3.136-4.756 5.665-9.816 8.043-14.826 1.77-3.795 3.591-7.438 4.754-11.536 1.517-4.554 2.579-8.956 3.54-13.662.91-4.351 1.364-8.551 1.566-13.004.152-2.074.455-4.199.252-6.324-.101-.304.101-.708-.455-.86-.355-.051-.405.303-.709.405-4.097 4.402-7.891 9.209-11.888 13.916-3.743 4.453-7.082 9.108-10.522 13.966-2.832 3.643-5.412 7.54-7.587 11.638-2.125 4.251-4.401 8.552-6.475 12.954-1.77 3.795-2.629 7.792-3.894 11.587-1.112 3.238-1.314 6.679-1.567 9.968-.202 1.923.254 3.795.811 5.464.658 1.973 2.227 3.137 3.694 2.479zM85.369 205.42c-.354-.051-.557.354-.81.607-.91.81-2.327 1.114-3.541.507-.607-.304-.76-.759-.81-1.417.05-1.366.455-2.682 1.011-4.048.405-.809 1.265-1.265 2.277-.759.658.455.961.354 1.214-.405 0-.506.101-1.214.81-1.113.657-.051.961.354 1.315.91.709 1.113.608 2.328.71 3.643-.405 3.845-1.517 7.59-2.276 11.385-.05.354-.253.759-.253 1.265.608-.203.76-.76.962-1.164 2.933-5.87 6.474-11.436 9.66-17.053a2.65 2.65 0 011.569-1.366c-1.163 2.074-2.175 4.098-3.338 6.173l-4.704 8.653-4.098 7.438c-.657 1.063-.91 2.328-.96 3.694-.102.708-.91 1.315-.354 1.973.354.557 1.214.607 1.67.961 1.922 1.214 3.086 2.681 3.694 5.009 1.367 4.604 1.266 9.36 1.216 14.268-.05 3.896-.504 7.589-1.465 11.283-.91 4.351-2.023 8.602-3.287 12.903-1.112 3.744-2.276 7.336-3.54 11.131-1.163 3.087-2.124 6.275-3.641 9.311-.607 1.214-1.214 2.428-2.58 2.884-1.62.709-3.188.051-3.441-1.72-.507-2.529-.052-5.211.403-7.893 1.113-6.274 2.579-12.498 3.691-18.772 1.061-7.438 1.971-14.825 2.88-22.212.708-4.959 1.517-9.614 2.275-14.42.101-.709.658-1.569-.101-1.822-.81-.404-.962.658-1.468 1.164-1.72 1.923-3.237 3.947-5.412 5.516-.709.405-1.265.759-2.075.86-.708-.101-1.012-.505-.556-1.163 2.175-2.581 3.844-5.668 7.234-7.135.91-.304 1.214-1.417 1.973-2.176 1.214-1.417 2.074-2.885 2.276-4.807.606-3.745 1.213-7.489 2.022-11.132.05-.354.1-.708-.152-.961zm2.382 24.336c-.355-1.062-1.266-2.782-3.037-4.047-.86-.556-1.315-.404-1.467.658-.91 3.846-1.415 7.893-1.971 11.789-.758 4.807-1.517 9.614-2.123 14.37-.91 5.869-1.516 11.637-2.578 17.557-.96 4.706-1.972 9.26-2.629 13.864-.303 2.125-.454 4.2-.302 6.173 0 .506.152.961.556 1.164.557.151.81-.102 1.215-.405.556-.354 1.011-1.012 1.315-1.62a37.606 37.606 0 002.883-6.527c2.326-6.679 4.45-13.459 6.22-20.29 2.175-7.64 3.54-15.18 3.386-23.224-.101-2.834-.253-5.819-1.468-9.462zm-4.912-24.336c.304-.101.557-.354.759-.759.202-.911.303-1.619.556-2.378.152-.557.05-.86-.304-.911-.556-.151-.91-.202-1.264.254-.304 1.113-.658 2.074-.607 3.238 0 .506.253.759.86.556zm22.911-4.942c-1.822.607-3.491.152-4.554-1.517-.354-.557-.405-.203-.658.05-.708.911-1.416 1.822-2.276 2.784-.557.86-1.467 1.164-2.58.86-.76-.253-1.114-.809-1.063-1.669.252-1.265.657-2.581 1.315-3.644.202-.404.404-.809 1.011-.506.608.304.557.658.254 1.265-.152.557-.405 1.316-.708 1.923-.051.354-.253.759.151.961.405.203.456-.152.709-.405 1.264-1.265 1.973-2.681 2.984-4.2.506-.506.961-1.163 1.417-1.821.506-.506.961-.658 1.366-.456.607.304.455.86.253 1.265-.202.911-.556 1.872-.404 2.834 0 1.011.455 1.366 1.568 1.163.962-.152 1.619-.709 2.328-1.113 2.529-2.025 4.603-4.403 6.88-6.68.404-.304.86-.962 1.113-.709.506.506-.203.911-.557 1.366-1.467 2.176-3.136 4.251-5.261 5.972-.91.809-1.922 1.821-3.288 2.277zm28.248-15.999c-3.238 2.935-6.678 5.769-10.219 8.3-1.417.809-2.631 1.72-4.048 2.53-1.315.607-2.631.709-4.047.507-1.366-.051-2.024-1.012-2.581-2.176a1.225 1.225 0 01.05-.86c.658-1.568 1.467-3.188 2.732-4.453.809-1.113 2.074-1.366 3.036-.506.759.759.759 1.771-.05 2.884-.86.961-1.923 1.822-2.985 2.682-.304.101-.759.253-.658.557.152.455.557.657.911.708 1.062.151 2.125-.203 2.985-.658 2.732-1.418 5.16-3.239 7.74-5.112 1.923-1.316 3.947-2.834 5.869-4.15.405-.303.708-.405 1.214-.405l.051.152zm-6.705 42.041c-2.429.81-3.795-.253-4.048-2.529-.253-1.771.202-3.441.657-5.111 1.668-6.122 4.299-11.891 7.587-17.204 1.922-2.833 3.642-5.768 5.361-8.703.355-.455.203-.911.051-1.366-.962-1.872-2.025-3.542-3.391-5.11-.557-.658-1.113-1.315-1.366-2.074-1.164-1.973-.052-4.706 2.326-5.161.152-.051.456-.152.658-.051.304-.101.506 0 .405.202.101.304-.051.354-.203.405-.607.203-1.011.506-1.416.81-1.366 1.467-1.315 2.125-.253 3.795 1.316 1.922 3.087 3.693 4.15 5.868.405.708.709.101.962-.152 1.72-2.429 3.288-4.807 4.856-7.185.607-.709 1.163-1.569 1.77-2.277.203-.405.506-.506.759-.253.405.202.304.404.253.758-.101.203-.354.456-.455.658-2.479 3.188-4.553 6.579-6.778 10.019-.253.253-.456.658-.253 1.265 2.227 5.667 1.621 11.435-.352 17.153-1.112 3.238-2.63 6.274-4.349 9.209-1.518 2.53-3.44 4.858-5.919 6.528-.405.303-.86.455-1.012.506zm-2.53-2.024c.405 1.721.961 1.872 2.378 1.063 1.265-.76 2.175-1.569 3.187-2.581 3.389-3.998 5.767-8.501 7.335-13.41 1.314-4.655 1.87-9.563.655-14.217-.152-.456.051-.86-.506-1.012-.506 0-.557.354-.81.607-1.922 3.34-4.046 6.578-5.968 9.918-2.428 4.352-4.451 8.906-5.918 13.611-.506 2.024-1.062 3.896-.353 6.021zm40.015-50.451c-.759 2.277-2.378 3.998-3.541 6.072-1.669 2.581-3.288 5.313-4.957 7.894-1.416 2.328-3.086 4.402-4.958 6.376-1.163 1.063-2.782 1.265-4.3.76-1.67-.456-2.733-1.619-3.138-3.339-.506-3.036-.152-6.021.555-8.956 1.719-8.5 4.552-16.697 7.434-24.743.152-.556.506-1.012.051-1.366-.253-.253-.81.101-1.265.253-2.479 1.164-5.211 2.076-7.842 3.29-5.009 2.177-9.866 4.303-14.824 6.631-5.616 2.885-11.333 5.466-16.999 8.199-2.58 1.367-5.211 2.581-8.095 3.037-.607.203-1.467.152-2.074-.151-.253-.253-.608-.304-.557-.658.101-.202.405-.304.607-.203 1.518-.506 2.985-1.164 4.402-1.468 5.11-.86 9.359-3.796 14.065-5.871 6.475-2.834 12.8-6.124 19.427-9.009 4.452-1.822 8.905-3.644 13.458-5.669.607-.203.961-.658 1.113-1.215 1.062-2.884 2.326-5.667 3.389-8.551l1.972-4.706a1.25 1.25 0 01.405-.809c.303-.607.86-.962 1.619-.709.708.101.607.81.658 1.467a37.297 37.297 0 01-1.265 4.807c-.657 2.075-1.466 4.2-2.124 6.275-.253.253-.455.657-.202.91.304.405.709.101 1.012 0 5.768-1.923 11.637-4.049 17.455-5.821 6.729-2.076 13.711-3.898 20.794-4.911 1.164-.051 2.125-.203 3.492.353-1.569.355-3.087.355-4.352.608-5.363 1.114-10.675 2.38-15.886 3.949-4.301 1.266-8.5 2.329-12.699 3.898-3.188 1.063-6.325 2.278-9.512 3.341-1.062.354-1.67 1.063-1.973 2.176-1.618 4.25-3.237 8.501-5.058 12.65-1.315 3.137-2.883 6.021-3.995 9.26-1.315 4.149-2.225 8.5-1.87 13.104.101 1.316.81 2.429 2.125 2.833 1.518.506 2.682-.051 3.694-1.063 1.568-1.872 3.085-3.896 4.603-5.92 2.883-4.504 5.615-8.451 8.448-12.6.101-.202.354-.455.708-.405zm-4.66-33.19c-.506 0-.557.354-.658.556-.657 1.569-1.467 3.188-2.074 4.908-.809 2.126-1.719 4.453-2.478 6.73-.05.354-.303.607.102.81.404.202.657-.051.758-.253.253-.253.355-.456.456-.658 1.214-3.441 2.781-6.831 3.641-10.323.152-.556.455-1.163.253-1.77zm-9.154 24.135c1.466-2.681 2.529-5.566 3.641-8.298.203-.405.557-.86.152-1.062-.607-.304-.911.303-1.113.708-.101.202-.051.354-.152.557-.961 2.681-1.922 5.363-2.528 8.095zm13.814 8.043c.253.759.607 1.316.759 1.771.101.809-.152 1.568-.05 2.378-.051.86.405 1.214 1.062.658 2.176-1.569 4.149-3.239 6.122-4.909.809-.608 1.214-1.417 1.871-1.974.253-.253.759-.253 1.012-.506l.152.455c-.354.456-.708.911-1.113 1.215a157.242 157.242 0 01-5.817 5.819c-.911.81-1.872 1.468-3.289 1.266-.708-.101-1.366-.557-1.518-1.518.101-1.214.151-2.58.252-3.795.101-.202.253-.253.557-.86zm.201-3.946c-.05-.658-.253-1.265-.303-1.923-.051-.152.404-.304.556-.354.152-.051.405.202.304.404.05.658-.101 1.215-.051 1.873-.151.05-.303.101-.506 0zm13.507 5.952c-1.062.354-2.732-.101-3.339-.91-.557-.658-.861-2.58-.456-3.39.202-.405.607-.708 1.012-.506.557.152.354.556.304.911-.203.91-.455 2.175.708 2.63 1.164.456 1.872-.455 2.631-1.214.506-.506.81-1.114 1.164-1.569.354-.455.253-.759-.405-.708-.911.303-1.973.152-2.429-.708-.455-.86.253-1.771.809-2.631 1.417-1.822 3.289-1.772 4.706-.052.303.405.607.81 1.062.658 1.923-.304 3.845-1.114 5.819-1.772.607-.202 1.315-.607 2.074-.86.152-.051.556-.355.708.101.102.303-.202.405-.455.658-2.783 1.265-5.312 2.783-8.095 3.037-.809.101-1.265.759-1.518 1.518-.657 1.568-1.618 2.732-2.782 3.795-.506.506-.91.81-1.518 1.012zm16.124-9.425c.759-.759 1.316-1.62 2.226-2.429.253-.253.658-.557 1.113-.709 1.366-.455 1.771-.253 2.176.961.456 1.366.607 1.316 1.771.759 1.568-.86 2.833-2.126 3.946-3.34.354-.456.809-1.113 1.416-.81.456.354.001 1.012-.353 1.467-1.316 1.62-2.783 3.29-4.705 4.1-1.569.86-2.783.253-3.593-1.164-.354-.556-.607-.303-1.012.001-1.062.86-1.669 2.074-2.478 3.188-.405.809-1.012 1.518-1.417 2.327-.354.456-.961.658-1.568.355-.607-.304-.608-.81-.456-1.366.405-1.316.86-2.48.556-3.896-.051-.658.809-1.114 1.467-1.164.658-.051.709.607.709 1.113.05.151-.051.354.202.607zm6.054 36.436c-2.429.81-3.795-.252-4.048-2.529-.254-1.771.202-3.441.657-5.11 1.668-6.123 4.298-11.891 7.586-17.204 1.923-2.834 3.642-5.769 5.362-8.704.354-.455.203-.911.051-1.366-.962-1.872-2.025-3.541-3.391-5.11-.557-.657-1.113-1.315-1.367-2.074-1.164-1.973-.051-4.705 2.327-5.161.152-.051.455-.152.658-.051.303-.101.506 0 .405.203.101.303-.051.354-.203.404-.607.203-1.012.506-1.416.81-1.366 1.468-1.315 2.125-.253 3.795 1.316 1.922 3.087 3.693 4.15 5.868.405.709.709.102.962-.152 1.719-2.428 3.288-4.807 4.856-7.185.607-.708 1.163-1.569 1.77-2.277.202-.405.506-.506.759-.253.405.202.304.405.253.759-.101.202-.354.455-.455.658-2.479 3.188-4.553 6.578-6.778 10.019-.253.253-.456.658-.253 1.265 2.227 5.666 1.621 11.434-.352 17.152-1.112 3.238-2.63 6.274-4.35 9.209-1.517 2.53-3.439 4.858-5.918 6.528-.405.304-.86.456-1.012.506zm-2.53-2.023c.405 1.72.961 1.872 2.378 1.062 1.265-.759 2.175-1.569 3.187-2.581 3.389-3.998 5.767-8.501 7.334-13.409 1.315-4.655 1.871-9.563.656-14.218-.152-.455.05-.86-.506-1.012-.506 0-.557.354-.81.607-1.922 3.34-4.046 6.579-5.968 9.918-2.428 4.352-4.452 8.906-5.918 13.612-.506 2.024-1.062 3.896-.353 6.021zm-2.595-97.803c-.253.759-.556.86-1.315.607-1.012-.506-1.67-1.467-1.468-2.884.151-2.58 1.264-4.806 2.428-6.881 3.793-6.831 8.548-12.802 14.518-17.66 4.907-3.999 10.067-7.743 15.784-10.325 4.098-1.872 8.247-3.087 12.75-2.228 4.959.708 8.299 3.642 10.424 7.993 1.62 3.845 2.076 7.74 1.925 11.839-.05 4.908-1.01 9.613-2.275 14.42-1.416 4.858-3.135 9.816-5.259 14.573-3.086 7.438-6.879 14.775-10.723 21.96-2.782 5.313-5.564 10.627-8.194 15.889-.456.658-.557 1.366-.81 2.125-.253.253-.759.759-1.113.709-.86-.051-.405-.709-.253-1.265 1.922-3.846 3.996-7.742 5.969-11.436 2.276-4.301 4.603-8.45 6.879-12.751 3.996-7.742 7.739-15.737 10.723-23.985 2.275-6.83 4.197-13.712 4.095-21.1-.001-4.553-.609-8.904-3.241-12.749-2.834-4.452-7.033-5.919-12.144-5.564-3.288.254-6.273 1.418-9.157 2.886-7.286 3.441-13.761 8.3-19.427 14.069-4.401 4.504-8.043 9.766-10.623 15.686-.506 1.012-.758 2.277-1.011 3.542-.202 1.417.253 2.277 1.518 2.53zm28.798 56.511c.506.506.911.709.962.86-.051.355-.304.608-.557.861-.101.202-.759-.253-.809-.405.05-.354.303-.607.404-1.316z" fill="#0E2C2C"/></svg><svg fill="none" viewBox="0 0 250 163" id="signature3" xmlns="http://www.w3.org/2000/svg"><path d="M10.56 70.04c-1.12 0-2.56-.96-2.88-1.92-.32-.8 0-2.72.64-3.36.32-.32.8-.48 1.12-.16.48.32.16.64 0 .96-.48.8-1.12 1.92-.16 2.72.96.8 1.92.16 2.88-.32.64-.32 1.12-.8 1.6-1.12.48-.32.48-.64-.16-.8-.96 0-1.92-.48-2.08-1.44-.16-.96.8-1.6 1.6-2.24 1.92-1.28 3.68-.64 4.48 1.44.16.48.32.96.8.96 1.92.32 4 .16 6.08.16.64 0 1.44-.16 2.24-.16.16 0 .64-.16.64.32 0 .32-.32.32-.64.48-3.04.32-5.92.96-8.64.32-.8-.16-1.44.32-1.92.96-1.12 1.28-2.4 2.08-3.84 2.72-.64.32-1.12.48-1.76.48z" fill="#fff"/><path d="M34.917 71.16c-1.92 0-3.36-.96-3.84-2.88-.16-.64-.32-.32-.64-.16-.96.64-1.92 1.28-3.04 1.92-.8.64-1.76.64-2.72 0-.64-.48-.8-1.12-.48-1.92.64-1.12 1.44-2.24 2.4-3.04.32-.32.64-.64 1.12-.16.48.48.32.8-.16 1.28-.32.48-.8 1.12-1.28 1.6-.16.32-.48.64-.16.96.32.32.48 0 .8-.16 1.6-.8 2.72-1.92 4.16-3.04.64-.32 1.28-.8 1.92-1.28.64-.32 1.12-.32 1.44 0 .48.48.16.96-.16 1.28-.48.8-1.12 1.6-1.28 2.56-.32.96 0 1.44 1.12 1.6.96.16 1.76-.16 2.56-.32 3.04-1.12 5.76-2.72 8.64-4.16.48-.16 1.12-.64 1.28-.32.32.64-.48.8-.96 1.12-2.08 1.6-4.32 3.04-6.88 4-1.12.48-2.4 1.12-3.84 1.12z" fill="#fff"/><path d="M52.376 72.44c-1.28-.16-2.4-.48-3.04-1.6-.64-1.28 0-2.24.8-3.2.64-.8 1.28-1.76 2.08-2.56.16-.32.32-.48.16-.8-.32-.16-.48 0-.64.16-1.6.48-3.2.96-4.8 1.28-.64.16-1.12.16-1.76 0-1.44-.48-1.76-1.28-.96-2.56 1.6-2.56 3.68-4.64 6.08-6.56.16-.16.48-.32.64-.48.64-.32 1.12-.16 1.76.32.48.32.32.96.16 1.44-.64 1.44-1.44 2.72-2.24 4-.16.32-.64.64-.32.96.16.32.64.16.96 0 1.12-.32 2.24-.8 3.36-1.12.64-.16 1.28-.16 1.6.48.48.64 0 .96-.48 1.44-1.76 1.6-3.36 3.52-4.64 5.44-.32.48-.64.8-.48 1.28.32.64.96.64 1.44.64 2.24-.32 4.32-1.28 6.24-2.4 1.76-.96 3.52-1.76 4.96-3.2.48-.48 1.12-.48 1.6-.64.32 0 .48 0 .48.16s0 .32-.16.48c-3.68 2.88-7.36 5.92-12 6.88-.32 0-.64 0-.8.16zm-6.4-8.16c.8 0 .96-.8 1.44-1.12 1.6-1.28 2.56-3.04 3.68-4.64.16-.16.32-.48 0-.64-.16-.16-.32 0-.48.16-1.6 1.44-3.2 2.56-4.32 4.32-.32.32-.48.8-.64 1.28-.16.32 0 .64.32.64zM94.302 102.68c-2.56 0-3.52-1.44-3.04-3.68.32-1.76 1.28-3.2 2.24-4.64 3.52-5.28 7.84-9.92 12.64-13.92 2.72-2.08 5.28-4.32 7.84-6.56.48-.32.48-.8.48-1.28-.32-2.08-.8-4-1.6-5.92-.32-.8-.64-1.6-.64-2.4-.48-2.24 1.44-4.48 3.84-4.16.16 0 .48 0 .64.16.32 0 .48.16.32.32 0 .32-.16.32-.32.32-.64 0-1.12.16-1.6.32-1.76.96-1.92 1.6-1.44 3.52.64 2.24 1.76 4.48 2.08 6.88.16.8.64.32.96.16 2.4-1.76 4.64-3.52 6.88-5.28.8-.48 1.6-1.12 2.4-1.6.32-.32.64-.32.8 0 .32.32.16.48 0 .8-.16.16-.48.32-.64.48-3.36 2.24-6.4 4.8-9.6 7.36-.32.16-.64.48-.64 1.12.32 6.08-2.08 11.36-5.76 16.16-2.08 2.72-4.48 5.12-7.04 7.36-2.24 1.92-4.8 3.52-7.68 4.32-.48.16-.96.16-1.12.16zm-1.76-2.72c-.16 1.76.32 2.08 1.92 1.76 1.44-.32 2.56-.8 3.84-1.44 4.48-2.72 8.16-6.24 11.2-10.4 2.72-4 4.8-8.48 5.12-13.28 0-.48.32-.8-.16-1.12-.48-.16-.64.16-.96.32-2.88 2.56-5.92 4.96-8.8 7.52-3.68 3.36-7.04 7.04-9.92 11.04-1.12 1.76-2.24 3.36-2.24 5.6z" fill="#fff"/><path d="M127.903 70.04c-1.12 0-2.56-.96-2.88-1.92-.32-.8 0-2.72.64-3.36.32-.32.8-.48 1.12-.16.48.32.16.64 0 .96-.48.8-1.12 1.92-.16 2.72.96.8 1.92.16 2.88-.32.64-.32 1.12-.8 1.6-1.12.48-.32.48-.64-.16-.8-.96 0-1.92-.48-2.08-1.44-.16-.96.8-1.6 1.6-2.24 1.92-1.28 3.68-.64 4.48 1.44.16.48.32.96.8.96 1.92.32 4 .16 6.08.16.64 0 1.44-.16 2.24-.16.16 0 .64-.16.64.32 0 .32-.32.32-.64.48-3.04.32-5.92.96-8.64.32-.8-.16-1.44.32-1.92.96-1.12 1.28-2.4 2.08-3.84 2.72-.64.32-1.12.48-1.76.48z" fill="#fff"/><path d="M165.861 64.92c-.48.64-.96.8-1.6 1.12-4.96 1.44-9.92 2.88-14.88 4.16-1.28.48-2.4.48-3.68.64-1.12 0-2.24-.48-2.88-1.6-.64-.96-.16-2.08.48-2.88.64-.96 1.44-1.92 2.24-2.88.16-.32.48-.48.96-.48.48-.16.8-.16 1.12.32.16.48 0 .8-.32 1.12-.96.96-1.92 1.76-2.72 2.88-.32.48-.64.96-.32 1.6.32.64 1.12.64 1.6.48 3.04-.32 5.92-1.28 8.8-2.08 3.52-.8 7.04-1.6 10.56-2.56.16 0 .32-.16.64.16z" fill="#fff"/><path d="M166.002 63.8c0 .8.16 1.44.16 1.92-.16.8-.64 1.44-.8 2.24-.32.8 0 1.28.8.96 2.56-.8 4.96-1.76 7.36-2.72.96-.32 1.6-.96 2.4-1.28.32-.16.8 0 1.12-.16v.48c-.48.32-.96.64-1.44.8-2.4 1.28-4.96 2.56-7.36 3.68-1.12.48-2.24.8-3.52.16-.64-.32-1.12-.96-.96-1.92.48-1.12.96-2.4 1.44-3.52.16-.16.32-.16.8-.64zm1.44-3.68c.16-.64.16-1.28.32-1.92 0-.16.48-.16.64-.16.16 0 .32.32.16.48-.16.64-.48 1.12-.64 1.76-.16 0-.32 0-.48-.16z" fill="#fff"/><path d="M201.252 65.24c-.96 0-1.6.16-2.4.48-4.48 2.08-9.44 3.04-14.24 4-1.6.32-3.2.16-4.16-1.44-.32-.48-.48-.32-.8 0-.48.48-1.12.96-1.6 1.6-1.12.8-2.08.64-2.72-.64-.96-1.92-.48-4 1.6-4.96.64-.32 1.28-.8 1.92-1.12.64-.32 1.12-.16 1.44.32.48.48.64.8-.16 1.12-1.12.16-1.92.8-2.88 1.28-.32.32-.64.64-.8 1.12 0 .48 0 .96.32 1.12.48.48.64-.16.8-.32 1.28-.96 2.4-2.08 3.52-3.04.48-.48.8-.8 1.44-.32.48.32.48.8.16 1.44-.32.64-.96 1.28-.48 1.92.64.64 1.44.48 2.24.32 5.12-.64 10.08-2.08 15.04-3.36.64-.16 1.28-.64 1.76.32v.16z" fill="#fff"/><path d="M198.595 70.2c-.48-2.08.96-3.84 1.6-5.76 1.76-5.44 4.16-10.4 7.04-15.2 1.44-2.56 3.2-4.8 4.8-7.2 3.2-4.64 6.56-9.12 9.92-13.76 3.36-4.48 7.04-8.96 10.72-13.28 2.72-3.2 5.44-6.4 8.48-9.44 1.44-1.44 2.72-2.88 4.32-4 .32-.32.8-.64 1.28-.96.96-.48 1.76-.48 2.56.16.64.64.64 1.44.48 2.24-.64 3.04-2.08 5.76-3.68 8.48-1.6 3.04-3.36 5.92-5.44 8.64-1.76 2.56-3.52 5.28-5.6 7.68-1.44 1.6-2.72 3.52-4.16 5.44-2.08 2.72-4.32 5.44-6.4 8.32-4.8 6.72-10.56 12.64-16.16 18.72-2.24 2.4-4.48 4.64-7.04 6.88-1.12.96-1.76 3.68-1.12 5.12.48.8 1.12.96 1.92.8 1.44-.16 2.72-.96 3.84-1.76 2.72-1.92 5.28-4 8-6.08.16-.16.48-.64.8-.32.32.32-.16.64-.48.8-2.72 2.08-5.12 4.48-7.68 6.72-1.12.8-2.24 1.44-3.52 1.76-2.72.64-4.32-.8-4.48-4zm50.08-68.16c0-.8-.64-1.12-1.44-.64-2.24 1.28-3.68 3.2-5.28 4.8-3.2 3.36-6.24 6.72-9.12 10.08-2.88 3.68-5.92 7.2-8.8 10.88-3.2 4.32-6.4 8.8-9.44 13.28-3.2 4.8-6.56 9.6-9.12 14.72-1.28 2.72-2.4 5.44-3.52 8.16-.16.32-.48.8 0 1.12.48.16.64-.32.96-.64 3.04-2.88 5.92-6.08 8.8-9.28 4.8-4.8 8.96-10.08 13.28-15.36 2.72-3.52 5.44-7.2 8.32-10.72 4.96-6.4 9.6-12.96 13.28-20.16.96-1.92 1.76-4 2.08-6.24zM10.4 126.2c.96-.48 1.76-1.12 2.88-1.6.32-.16.8-.32 1.28-.32 1.44 0 1.76.32 1.76 1.6 0 1.44.16 1.44 1.44 1.28 1.76-.32 3.36-1.12 4.8-1.92.48-.32 1.12-.8 1.6-.32.32.48-.32.96-.8 1.28-1.76 1.12-3.68 2.24-5.76 2.4-1.76.32-2.72-.64-3.04-2.24-.16-.64-.48-.48-.96-.32-1.28.48-2.24 1.44-3.36 2.24-.64.64-1.44 1.12-2.08 1.76-.48.32-1.12.32-1.6-.16s-.32-.96 0-1.44c.8-1.12 1.6-2.08 1.76-3.52.16-.64 1.12-.8 1.76-.64.64.16.48.8.32 1.28 0 .16-.16.32 0 .64z" fill="#fff"/><path d="M43.495 124.92c-4 1.76-8.16 3.36-12.32 4.64-1.6.32-3.04.8-4.64 1.12-1.44.16-2.72-.16-4-.8-1.28-.48-1.6-1.6-1.76-2.88 0-.32.16-.64.32-.8 1.12-1.28 2.4-2.56 4-3.36 1.12-.8 2.4-.64 3.04.48.48.96.16 1.92-.96 2.72-1.12.64-2.4 1.12-3.68 1.6-.32 0-.8 0-.8.32 0 .48.32.8.64.96.96.48 2.08.48 3.04.32 3.04-.48 5.92-1.44 8.96-2.4 2.24-.64 4.64-1.44 6.88-2.08.48-.16.8-.16 1.28 0v.16z" fill="#fff"/><path d="M62.713 124.76c-1.44 1.92-3.52 3.04-5.28 4.64-2.4 1.92-4.8 4-7.2 5.92-2.08 1.76-4.32 3.2-6.72 4.48-1.44.64-3.04.32-4.32-.64-1.44-.96-2.08-2.4-1.92-4.16.48-3.04 1.76-5.76 3.36-8.32 4.32-7.52 9.6-14.4 14.88-21.12.32-.48.8-.8.48-1.28-.16-.32-.8-.16-1.28-.16-2.72.32-5.6.32-8.48.64-5.44.48-10.72.96-16.16 1.6-6.24.96-12.48 1.6-18.72 2.4-2.88.48-5.76.8-8.64.32-.64 0-1.44-.32-1.92-.8-.16-.32-.48-.48-.32-.8.16-.16.48-.16.64 0 1.6 0 3.2-.16 4.64 0 5.12.8 10.08-.64 15.2-1.12 7.04-.64 14.08-1.76 21.28-2.4 4.8-.32 9.6-.64 14.56-1.12.64 0 1.12-.32 1.44-.8 1.92-2.4 4-4.64 5.92-7.04l3.36-3.84c.16-.32.32-.48.64-.64.48-.48 1.12-.64 1.76-.16.64.32.32.96.16 1.6a37.22 37.22 0 01-2.72 4.16c-1.28 1.76-2.72 3.52-4 5.28-.32.16-.64.48-.48.8.16.48.64.32.96.32 6.08 0 12.32-.16 18.4 0 7.04.16 14.24.64 21.28 1.92 1.12.32 2.08.48 3.2 1.44-1.6-.16-3.04-.64-4.32-.8-5.44-.64-10.88-1.12-16.32-1.28-4.48-.16-8.8-.48-13.28-.32-3.36 0-6.72.16-10.08.16-1.12 0-1.92.48-2.56 1.44-2.88 3.52-5.76 7.04-8.8 10.4-2.24 2.56-4.64 4.8-6.72 7.52-2.56 3.52-4.8 7.36-5.92 11.84-.32 1.28 0 2.56 1.12 3.36 1.28.96 2.56.8 3.84.16 2.08-1.28 4.16-2.72 6.24-4.16 4.16-3.36 8-6.24 12-9.28.16-.16.48-.32.8-.16zm6.08-32.96c-.48-.16-.64.16-.8.32-1.12 1.28-2.4 2.56-3.52 4-1.44 1.76-3.04 3.68-4.48 5.6-.16.32-.48.48-.16.8.32.32.64.16.8 0 .32-.16.48-.32.64-.48 2.24-2.88 4.8-5.6 6.72-8.64.32-.48.8-.96.8-1.6zm-16.32 20c2.24-2.08 4.16-4.48 6.08-6.72.32-.32.8-.64.48-.96-.48-.48-.96 0-1.28.32-.16.16-.16.32-.32.48-1.76 2.24-3.52 4.48-4.96 6.88z" fill="#fff"/><path d="M85.593 125.56c-1.76.32-3.52.8-5.28 1.12-.96.16-1.76.48-2.72.48-1.6 0-2.72.96-3.68 2.08-1.12 1.76-2.08 2.72-4 3.52-.8.32-1.76.48-2.72.16-.96-.48-1.76-.96-1.76-2.24 0-.64-.16-.96-.8-.48-.32.32-.8.64-1.12.8-1.28.8-2.24.48-3.2-.48-.32-.32-.48-.8-.32-1.28.48-1.28.8-2.72 1.6-4 .32-.48.64-.96 1.28-.48s.64.8.32 1.44c-.64.8-.8 1.76-1.12 2.56-.16.32-.32.48 0 .64.16.16.32 0 .48-.16 1.44-.8 2.72-1.76 3.68-2.72.48-.48.96-.64 1.44-.16.64.32.64.8.32 1.28-.64.96-.64 2.08-.64 3.04 0 .64.32.96.8.64 2.4-.96 3.84-1.92 5.28-4.16.16-.48 0-.8-.32-.96-.64-.64-.96-1.28-.8-2.08.16-.8.96-1.28 1.76-.96.8.32 1.6.64 1.92 1.6.16.96.8 1.12 1.6.96 2.56-.32 5.12-.8 7.52-.96h.48c.32 0 1.12-.16 1.12.48s-.8.32-1.12.32z" fill="#fff"/><path d="M88.216 130.04c-1.12 0-2.56-.96-2.88-1.92-.32-.8 0-2.72.64-3.36.32-.32.8-.48 1.12-.16.48.32.16.64 0 .96-.48.8-1.12 1.92-.16 2.72.96.8 1.92.16 2.88-.32.64-.32 1.12-.8 1.6-1.12.48-.32.48-.64-.16-.8-.96 0-1.92-.48-2.08-1.44-.16-.96.8-1.6 1.6-2.24 1.92-1.28 3.68-.64 4.48 1.44.16.48.32.96.8.96 1.92.32 4 .16 6.08.16.64 0 1.44-.16 2.24-.16.16 0 .64-.16.64.32 0 .32-.32.32-.64.48-3.04.32-5.92.96-8.64.32-.8-.16-1.44.32-1.92.96-1.12 1.28-2.4 2.08-3.84 2.72-.64.32-1.12.48-1.76.48z" fill="#fff"/><path d="M110.813 132.44c-1.28-.16-2.4-.48-3.04-1.6-.64-1.28 0-2.24.8-3.2.64-.8 1.28-1.76 2.08-2.56.16-.32.32-.48.16-.8-.32-.16-.48 0-.64.16-1.6.48-3.2.96-4.8 1.28-.64.16-1.12.16-1.76 0-1.44-.48-1.76-1.28-.96-2.56 1.6-2.56 3.68-4.64 6.08-6.56.16-.16.48-.32.64-.48.64-.32 1.12-.16 1.76.32.48.32.32.96.16 1.44-.64 1.44-1.44 2.72-2.24 4-.16.32-.64.64-.32.96.16.32.64.16.96 0 1.12-.32 2.24-.8 3.36-1.12.64-.16 1.28-.16 1.6.48.48.64 0 .96-.48 1.44-1.76 1.6-3.36 3.52-4.64 5.44-.32.48-.64.8-.48 1.28.32.64.96.64 1.44.64 2.24-.32 4.32-1.28 6.24-2.4 1.76-.96 3.52-1.76 4.96-3.2.48-.48 1.12-.48 1.6-.64.32 0 .48 0 .48.16s0 .32-.16.48c-3.68 2.88-7.36 5.92-12 6.88-.32 0-.64 0-.8.16zm-6.4-8.16c.8 0 .96-.8 1.44-1.12 1.6-1.28 2.56-3.04 3.68-4.64.16-.16.32-.48 0-.64-.16-.16-.32 0-.48.16-1.6 1.44-3.2 2.56-4.32 4.32-.32.32-.48.8-.64 1.28-.16.32 0 .64.32.64z" fill="#fff"/><path d="M122.691 128.92c.64 0 .8-.32.96-.64 1.92-2.24 4.32-3.84 6.88-5.12.16-.16.48-.32.64-.32.32 0 .64.16.8.48.16.32-.16.48-.48.64-2.24 1.12-4.16 2.72-6.08 4.64-.32.16-.8.48-.48.96.16.48.64.16 1.12 0 4.8-1.12 9.6-2.72 14.24-4.64.32-.16.8-.48.96 0 .16.32-.16.64-.48.8-1.44.96-3.2 1.44-4.8 2.08-2.4 1.12-4.96 2.08-7.52 2.72-1.44.48-2.72.48-4.16.48-.64 0-1.12 0-1.6-.64-.32-.48-.64-.16-.64.32-.32 1.28-.64 2.56-.64 3.84 0 1.6.8 2.24 2.4 1.92.8-.32 1.44-.48 2.08-1.12.16-.16.48-.32.64-.16.32.32.16.64 0 .8-.96 1.28-3.04 1.92-4.64 1.44-1.28-.48-2.08-1.6-1.92-3.36.32-2.4.8-4.8 1.76-7.04 1.12-2.88 2.08-5.92 3.36-8.8 3.52-7.52 7.36-14.88 12-21.76 2.56-3.84 4.96-7.84 7.52-11.68 3.2-4.96 6.88-9.6 10.56-14.24 4.64-5.92 9.28-11.84 14.88-16.96 1.28-1.12 2.56-2.24 4-3.36.8-.64 1.76-1.12 2.88-.96 1.12 0 1.76.64 1.6 1.76-.16 1.76-.64 3.2-1.44 4.64-2.88 4.8-5.76 9.6-9.12 14.08-2.08 2.88-4.16 5.92-6.4 8.8-2.4 3.2-4.8 6.24-7.2 9.44-2.4 3.04-4.96 6.08-7.36 9.12-2.56 3.36-5.12 6.72-7.84 10.08-4 4.96-8 9.76-12 14.72-1.44 1.92-2.88 3.68-4 5.76-.32.32-.48.8-.48 1.28zm2.88-7.68c.48-.16.64-.48.8-.64 1.76-2.24 3.52-4.48 5.28-6.56 2.72-3.36 5.44-6.72 8.16-9.92 3.04-3.52 5.6-7.2 8.48-10.72 4.64-5.76 9.44-11.52 13.76-17.44 4.32-5.92 8.64-11.84 12.48-18.24 1.12-1.92 2.4-3.84 2.72-6.24.16-.48.32-.96-.16-1.28-.48-.48-.96 0-1.28.16-3.68 1.92-6.24 5.12-9.12 8-3.2 3.2-6.08 6.72-8.8 10.4-2.56 3.36-5.28 6.72-7.84 10.08-1.76 2.4-3.36 4.8-4.96 7.2-3.04 4.64-5.76 9.28-8.8 13.92-3.84 6.08-7.04 12.48-9.92 18.88-.32.8-.64 1.44-.8 2.4z" fill="#fff"/><path d="M122.427 162.68c-2.56 0-3.52-1.44-3.04-3.68.32-1.76 1.28-3.2 2.24-4.64 3.52-5.28 7.84-9.92 12.64-13.92 2.72-2.08 5.28-4.32 7.84-6.56.48-.32.48-.8.48-1.28-.32-2.08-.8-4-1.6-5.92-.32-.8-.64-1.6-.64-2.4-.48-2.24 1.44-4.48 3.84-4.16.16 0 .48 0 .64.16.32 0 .48.16.32.32 0 .32-.16.32-.32.32-.64 0-1.12.16-1.6.32-1.76.96-1.92 1.6-1.44 3.52.64 2.24 1.76 4.48 2.08 6.88.16.8.64.32.96.16 2.4-1.76 4.64-3.52 6.88-5.28.8-.48 1.6-1.12 2.4-1.6.32-.32.64-.32.8 0 .32.32.16.48 0 .8-.16.16-.48.32-.64.48-3.36 2.24-6.4 4.8-9.6 7.36-.32.16-.64.48-.64 1.12.32 6.08-2.08 11.36-5.76 16.16-2.08 2.72-4.48 5.12-7.04 7.36-2.24 1.92-4.8 3.52-7.68 4.32-.48.16-.96.16-1.12.16zm-1.76-2.72c-.16 1.76.32 2.08 1.92 1.76 1.44-.32 2.56-.8 3.84-1.44 4.48-2.72 8.16-6.24 11.2-10.4 2.72-4 4.8-8.48 5.12-13.28 0-.48.32-.8-.16-1.12-.48-.16-.64.16-.96.32-2.88 2.56-5.92 4.96-8.8 7.52-3.68 3.36-7.04 7.04-9.92 11.04-1.12 1.76-2.24 3.36-2.24 5.6z" fill="#fff"/></svg><svg fill="none" viewBox="0 0 80 6" id="slider-arrow" xmlns="http://www.w3.org/2000/svg"><path d="M80 3L75 .113v5.774L80 3zM0 3.5h75.5v-1H0v1z" fill="#43FFD2"/></svg><svg fill="none" viewBox="0 0 25 25" id="watsup" xmlns="http://www.w3.org/2000/svg"><path d="M24.572 5.911a12.79 12.79 0 00-.125-1.549 5.21 5.21 0 00-.438-1.317A4.656 4.656 0 0021.962.997 5.194 5.194 0 0020.653.56a12.716 12.716 0 00-1.561-.127 19.916 19.916 0 00-.64-.012L6.551.417c-.133 0-.42.004-.64.012-.52.01-1.036.052-1.55.125a5.21 5.21 0 00-1.317.438A4.657 4.657 0 00.997 3.04 5.2 5.2 0 00.56 4.348a12.742 12.742 0 00-.129 1.56C.424 6.13.42 6.417.42 6.55l-.002 11.9c0 .133.004.42.012.64.01.519.052 1.036.125 1.55.086.456.234.899.438 1.317a4.657 4.657 0 002.047 2.048c.415.203.855.35 1.309.437.517.074 1.038.117 1.56.127.222.008.508.012.641.012l11.9.002c.133 0 .42-.003.64-.012.519-.01 1.036-.051 1.55-.124.456-.087.899-.235 1.317-.439a4.657 4.657 0 002.049-2.047c.203-.415.35-.855.437-1.308.075-.518.118-1.039.128-1.561.008-.222.012-.508.012-.64l.002-11.9c0-.132-.004-.419-.012-.64zm-11.81 14.996h-.003a8.611 8.611 0 01-4.117-1.05l-4.567 1.198 1.222-4.462a8.615 8.615 0 117.465 4.314z" fill="#43FFD2"/><path d="M12.766 5.13a7.162 7.162 0 00-6.069 10.967l.17.27-.723 2.642 2.71-.71.26.154a7.151 7.151 0 003.645.998h.004a7.161 7.161 0 00.002-14.322l.001.001zm4.21 10.235a2.216 2.216 0 01-1.452 1.023 2.953 2.953 0 01-1.356-.084c-.416-.13-.826-.282-1.226-.455A9.595 9.595 0 019.265 12.6a4.184 4.184 0 01-.88-2.226 2.413 2.413 0 01.754-1.794.791.791 0 01.574-.27c.143 0 .286 0 .412.008.133.006.31-.051.483.37.182.43.612 1.49.665 1.597a.394.394 0 01.018.377 1.47 1.47 0 01-.215.359c-.109.125-.226.28-.323.377-.108.107-.22.223-.095.438a6.485 6.485 0 001.197 1.491c.511.454 1.097.816 1.732 1.069.215.108.34.089.466-.055s.538-.628.682-.843c.144-.215.286-.179.483-.108.197.072 1.257.592 1.472.701.215.109.359.16.412.25.059.346.015.702-.126 1.024z" fill="#43FFD2"/></svg></svg>