<svg width="250" height="163" viewBox="0 0 250 163" fill="none" xmlns="http://www.w3.org/2000/svg">
<path d="M10.5595 70.04C9.43955 70.04 7.99955 69.08 7.67955 68.12C7.35955 67.32 7.67955 65.4 8.31955 64.76C8.63955 64.44 9.11955 64.28 9.43955 64.6C9.91955 64.92 9.59955 65.24 9.43955 65.56C8.95955 66.36 8.31955 67.48 9.27955 68.28C10.2395 69.08 11.1995 68.44 12.1595 67.96C12.7995 67.64 13.2795 67.16 13.7595 66.84C14.2395 66.52 14.2395 66.2 13.5995 66.04C12.6395 66.04 11.6795 65.56 11.5195 64.6C11.3595 63.64 12.3195 63 13.1195 62.36C15.0395 61.08 16.7995 61.72 17.5995 63.8C17.7595 64.28 17.9195 64.76 18.3995 64.76C20.3195 65.08 22.3995 64.92 24.4795 64.92C25.1195 64.92 25.9195 64.76 26.7195 64.76C26.8795 64.76 27.3595 64.6 27.3595 65.08C27.3595 65.4 27.0395 65.4 26.7195 65.56C23.6795 65.88 20.7995 66.52 18.0795 65.88C17.2795 65.72 16.6395 66.2 16.1595 66.84C15.0395 68.12 13.7595 68.92 12.3195 69.56C11.6795 69.88 11.1995 70.04 10.5595 70.04Z" fill="white"/>
<path d="M34.917 71.16C32.997 71.16 31.557 70.2 31.077 68.28C30.917 67.64 30.757 67.96 30.437 68.12C29.477 68.76 28.517 69.4 27.397 70.04C26.597 70.68 25.637 70.68 24.677 70.04C24.037 69.56 23.877 68.92 24.197 68.12C24.837 67 25.637 65.88 26.597 65.08C26.917 64.76 27.237 64.44 27.717 64.92C28.197 65.4 28.037 65.72 27.557 66.2C27.237 66.68 26.757 67.32 26.277 67.8C26.117 68.12 25.797 68.44 26.117 68.76C26.437 69.08 26.597 68.76 26.917 68.6C28.517 67.8 29.637 66.68 31.077 65.56C31.717 65.24 32.357 64.76 32.997 64.28C33.637 63.96 34.117 63.96 34.437 64.28C34.917 64.76 34.597 65.24 34.277 65.56C33.797 66.36 33.157 67.16 32.997 68.12C32.677 69.08 32.997 69.56 34.117 69.72C35.077 69.88 35.877 69.56 36.677 69.4C39.717 68.28 42.437 66.68 45.317 65.24C45.797 65.08 46.437 64.6 46.597 64.92C46.917 65.56 46.117 65.72 45.637 66.04C43.557 67.64 41.317 69.08 38.757 70.04C37.637 70.52 36.357 71.16 34.917 71.16Z" fill="white"/>
<path d="M52.3758 72.44C51.0958 72.28 49.9758 71.96 49.3358 70.84C48.6958 69.56 49.3358 68.6 50.1358 67.64C50.7758 66.84 51.4158 65.88 52.2158 65.08C52.3758 64.76 52.5358 64.6 52.3758 64.28C52.0558 64.12 51.8958 64.28 51.7358 64.44C50.1358 64.92 48.5358 65.4 46.9358 65.72C46.2958 65.88 45.8158 65.88 45.1758 65.72C43.7358 65.24 43.4158 64.44 44.2158 63.16C45.8158 60.6 47.8958 58.52 50.2958 56.6C50.4558 56.44 50.7758 56.28 50.9358 56.12C51.5758 55.8 52.0558 55.96 52.6958 56.44C53.1758 56.76 53.0158 57.4 52.8558 57.88C52.2158 59.32 51.4158 60.6 50.6158 61.88C50.4558 62.2 49.9758 62.52 50.2958 62.84C50.4558 63.16 50.9358 63 51.2558 62.84C52.3758 62.52 53.4958 62.04 54.6158 61.72C55.2558 61.56 55.8958 61.56 56.2158 62.2C56.6958 62.84 56.2158 63.16 55.7358 63.64C53.9758 65.24 52.3758 67.16 51.0958 69.08C50.7758 69.56 50.4558 69.88 50.6158 70.36C50.9358 71 51.5758 71 52.0558 71C54.2958 70.68 56.3758 69.72 58.2958 68.6C60.0558 67.64 61.8158 66.84 63.2558 65.4C63.7358 64.92 64.3758 64.92 64.8558 64.76C65.1758 64.76 65.3358 64.76 65.3358 64.92C65.3358 65.08 65.3358 65.24 65.1758 65.4C61.4958 68.28 57.8158 71.32 53.1758 72.28C52.8558 72.28 52.5358 72.28 52.3758 72.44ZM45.9758 64.28C46.7758 64.28 46.9358 63.48 47.4158 63.16C49.0158 61.88 49.9758 60.12 51.0958 58.52C51.2558 58.36 51.4158 58.04 51.0958 57.88C50.9358 57.72 50.7758 57.88 50.6158 58.04C49.0158 59.48 47.4158 60.6 46.2958 62.36C45.9758 62.68 45.8158 63.16 45.6558 63.64C45.4958 63.96 45.6558 64.28 45.9758 64.28Z" fill="white"/>
<path d="M94.302 102.68C91.742 102.68 90.782 101.24 91.262 99C91.582 97.24 92.542 95.8 93.502 94.36C97.022 89.08 101.342 84.44 106.142 80.44C108.862 78.36 111.422 76.12 113.982 73.88C114.462 73.56 114.462 73.08 114.462 72.6C114.142 70.52 113.662 68.6 112.862 66.68C112.542 65.88 112.222 65.08 112.222 64.28C111.742 62.04 113.662 59.8 116.062 60.12C116.222 60.12 116.542 60.12 116.702 60.28C117.022 60.28 117.182 60.44 117.022 60.6C117.022 60.92 116.862 60.92 116.702 60.92C116.062 60.92 115.582 61.08 115.102 61.24C113.342 62.2 113.182 62.84 113.662 64.76C114.302 67 115.422 69.24 115.742 71.64C115.902 72.44 116.382 71.96 116.702 71.8C119.102 70.04 121.342 68.28 123.582 66.52C124.382 66.04 125.182 65.4 125.982 64.92C126.302 64.6 126.622 64.6 126.782 64.92C127.102 65.24 126.942 65.4 126.782 65.72C126.622 65.88 126.302 66.04 126.142 66.2C122.782 68.44 119.742 71 116.542 73.56C116.222 73.72 115.902 74.04 115.902 74.68C116.222 80.76 113.822 86.04 110.142 90.84C108.062 93.56 105.662 95.96 103.102 98.2C100.862 100.12 98.302 101.72 95.422 102.52C94.942 102.68 94.462 102.68 94.302 102.68ZM92.542 99.96C92.382 101.72 92.862 102.04 94.462 101.72C95.902 101.4 97.022 100.92 98.302 100.28C102.782 97.56 106.462 94.04 109.502 89.88C112.222 85.88 114.302 81.4 114.622 76.6C114.622 76.12 114.942 75.8 114.462 75.48C113.982 75.32 113.822 75.64 113.502 75.8C110.622 78.36 107.582 80.76 104.702 83.32C101.022 86.68 97.662 90.36 94.782 94.36C93.662 96.12 92.542 97.72 92.542 99.96Z" fill="white"/>
<path d="M127.903 70.04C126.783 70.04 125.343 69.08 125.023 68.12C124.703 67.32 125.023 65.4 125.663 64.76C125.983 64.44 126.463 64.28 126.783 64.6C127.263 64.92 126.943 65.24 126.783 65.56C126.303 66.36 125.663 67.48 126.623 68.28C127.583 69.08 128.543 68.44 129.503 67.96C130.143 67.64 130.623 67.16 131.103 66.84C131.583 66.52 131.583 66.2 130.943 66.04C129.983 66.04 129.023 65.56 128.863 64.6C128.703 63.64 129.663 63 130.463 62.36C132.383 61.08 134.143 61.72 134.943 63.8C135.103 64.28 135.263 64.76 135.743 64.76C137.663 65.08 139.743 64.92 141.823 64.92C142.463 64.92 143.263 64.76 144.063 64.76C144.223 64.76 144.703 64.6 144.703 65.08C144.703 65.4 144.383 65.4 144.063 65.56C141.023 65.88 138.143 66.52 135.423 65.88C134.623 65.72 133.983 66.2 133.503 66.84C132.383 68.12 131.103 68.92 129.663 69.56C129.023 69.88 128.543 70.04 127.903 70.04Z" fill="white"/>
<path d="M165.861 64.92C165.381 65.56 164.901 65.72 164.261 66.04C159.301 67.48 154.341 68.92 149.381 70.2C148.101 70.68 146.981 70.68 145.701 70.84C144.581 70.84 143.461 70.36 142.821 69.24C142.181 68.28 142.661 67.16 143.301 66.36C143.941 65.4 144.741 64.44 145.541 63.48C145.701 63.16 146.021 63 146.501 63C146.981 62.84 147.301 62.84 147.621 63.32C147.781 63.8 147.621 64.12 147.301 64.44C146.341 65.4 145.381 66.2 144.581 67.32C144.261 67.8 143.941 68.28 144.261 68.92C144.581 69.56 145.381 69.56 145.861 69.4C148.901 69.08 151.781 68.12 154.661 67.32C158.181 66.52 161.701 65.72 165.221 64.76C165.381 64.76 165.541 64.6 165.861 64.92Z" fill="white"/>
<path d="M166.002 63.8C166.002 64.6 166.162 65.24 166.162 65.72C166.002 66.52 165.522 67.16 165.362 67.96C165.042 68.76 165.362 69.24 166.162 68.92C168.722 68.12 171.122 67.16 173.522 66.2C174.482 65.88 175.122 65.24 175.922 64.92C176.242 64.76 176.722 64.92 177.042 64.76C177.042 64.92 177.042 65.08 177.042 65.24C176.562 65.56 176.082 65.88 175.602 66.04C173.202 67.32 170.642 68.6 168.242 69.72C167.122 70.2 166.002 70.52 164.722 69.88C164.082 69.56 163.602 68.92 163.762 67.96C164.242 66.84 164.722 65.56 165.202 64.44C165.362 64.28 165.522 64.28 166.002 63.8ZM167.442 60.12C167.602 59.48 167.602 58.84 167.762 58.2C167.762 58.04 168.242 58.04 168.402 58.04C168.562 58.04 168.722 58.36 168.562 58.52C168.402 59.16 168.082 59.64 167.922 60.28C167.762 60.28 167.602 60.28 167.442 60.12Z" fill="white"/>
<path d="M201.252 65.24C200.292 65.24 199.652 65.4 198.852 65.72C194.372 67.8 189.412 68.76 184.612 69.72C183.012 70.04 181.412 69.88 180.452 68.28C180.132 67.8 179.972 67.96 179.652 68.28C179.172 68.76 178.532 69.24 178.052 69.88C176.932 70.68 175.972 70.52 175.332 69.24C174.372 67.32 174.852 65.24 176.932 64.28C177.572 63.96 178.212 63.48 178.852 63.16C179.492 62.84 179.972 63 180.292 63.48C180.772 63.96 180.932 64.28 180.132 64.6C179.012 64.76 178.212 65.4 177.252 65.88C176.932 66.2 176.612 66.52 176.452 67C176.452 67.48 176.452 67.96 176.772 68.12C177.252 68.6 177.412 67.96 177.572 67.8C178.852 66.84 179.972 65.72 181.092 64.76C181.572 64.28 181.892 63.96 182.532 64.44C183.012 64.76 183.012 65.24 182.692 65.88C182.372 66.52 181.732 67.16 182.212 67.8C182.852 68.44 183.652 68.28 184.452 68.12C189.572 67.48 194.532 66.04 199.492 64.76C200.132 64.6 200.772 64.12 201.252 65.08V65.24Z" fill="white"/>
<path d="M198.595 70.2C198.115 68.12 199.555 66.36 200.195 64.44C201.955 59 204.355 54.04 207.235 49.24C208.675 46.68 210.435 44.44 212.035 42.04C215.235 37.4 218.595 32.92 221.955 28.28C225.315 23.8 228.995 19.32 232.675 15C235.395 11.8 238.115 8.59996 241.155 5.55996C242.595 4.11996 243.875 2.67996 245.475 1.55996C245.795 1.23996 246.275 0.919961 246.755 0.599965C247.715 0.119962 248.515 0.119962 249.315 0.759963C249.955 1.39996 249.955 2.19996 249.795 2.99996C249.155 6.03996 247.715 8.75996 246.115 11.48C244.515 14.52 242.755 17.4 240.675 20.12C238.915 22.68 237.155 25.4 235.075 27.8C233.635 29.4 232.355 31.32 230.915 33.24C228.835 35.96 226.595 38.68 224.515 41.56C219.715 48.28 213.955 54.2 208.355 60.28C206.115 62.68 203.875 64.92 201.315 67.16C200.195 68.12 199.555 70.84 200.195 72.28C200.675 73.08 201.315 73.24 202.115 73.08C203.555 72.92 204.835 72.12 205.955 71.32C208.675 69.4 211.235 67.32 213.955 65.24C214.115 65.08 214.435 64.6 214.755 64.92C215.075 65.24 214.595 65.56 214.275 65.72C211.555 67.8 209.155 70.2 206.595 72.44C205.475 73.24 204.355 73.88 203.075 74.2C200.355 74.84 198.755 73.4 198.595 70.2ZM248.675 2.03997C248.675 1.23996 248.035 0.919961 247.235 1.39996C244.995 2.67996 243.555 4.59996 241.955 6.19996C238.755 9.55996 235.715 12.92 232.835 16.28C229.955 19.96 226.915 23.48 224.035 27.16C220.835 31.48 217.635 35.96 214.595 40.44C211.395 45.24 208.035 50.04 205.475 55.16C204.195 57.88 203.075 60.6 201.955 63.32C201.795 63.64 201.475 64.12 201.955 64.44C202.435 64.6 202.595 64.12 202.915 63.8C205.955 60.92 208.835 57.72 211.715 54.52C216.515 49.72 220.675 44.44 224.995 39.16C227.715 35.64 230.435 31.96 233.315 28.44C238.275 22.04 242.915 15.48 246.595 8.27996C247.555 6.35996 248.355 4.27997 248.675 2.03997Z" fill="white"/>
<path d="M10.3995 126.2C11.3595 125.72 12.1595 125.08 13.2795 124.6C13.5995 124.44 14.0795 124.28 14.5595 124.28C15.9995 124.28 16.3195 124.6 16.3195 125.88C16.3195 127.32 16.4795 127.32 17.7595 127.16C19.5195 126.84 21.1195 126.04 22.5595 125.24C23.0395 124.92 23.6795 124.44 24.1595 124.92C24.4795 125.4 23.8395 125.88 23.3595 126.2C21.5995 127.32 19.6795 128.44 17.5995 128.6C15.8395 128.92 14.8795 127.96 14.5595 126.36C14.3995 125.72 14.0795 125.88 13.5995 126.04C12.3195 126.52 11.3595 127.48 10.2395 128.28C9.59955 128.92 8.79955 129.4 8.15955 130.04C7.67955 130.36 7.03955 130.36 6.55955 129.88C6.07955 129.4 6.23955 128.92 6.55955 128.44C7.35955 127.32 8.15955 126.36 8.31955 124.92C8.47955 124.28 9.43955 124.12 10.0795 124.28C10.7195 124.44 10.5595 125.08 10.3995 125.56C10.3995 125.72 10.2395 125.88 10.3995 126.2Z" fill="white"/>
<path d="M43.4945 124.92C39.4945 126.68 35.3345 128.28 31.1745 129.56C29.5745 129.88 28.1345 130.36 26.5345 130.68C25.0945 130.84 23.8145 130.52 22.5345 129.88C21.2545 129.4 20.9345 128.28 20.7745 127C20.7745 126.68 20.9345 126.36 21.0945 126.2C22.2145 124.92 23.4945 123.64 25.0945 122.84C26.2145 122.04 27.4945 122.2 28.1345 123.32C28.6145 124.28 28.2945 125.24 27.1745 126.04C26.0545 126.68 24.7745 127.16 23.4945 127.64C23.1745 127.64 22.6945 127.64 22.6945 127.96C22.6945 128.44 23.0145 128.76 23.3345 128.92C24.2945 129.4 25.4145 129.4 26.3745 129.24C29.4145 128.76 32.2945 127.8 35.3345 126.84C37.5745 126.2 39.9745 125.4 42.2145 124.76C42.6945 124.6 43.0145 124.6 43.4945 124.76V124.92Z" fill="white"/>
<path d="M62.7133 124.76C61.2733 126.68 59.1933 127.8 57.4333 129.4C55.0333 131.32 52.6333 133.4 50.2333 135.32C48.1533 137.08 45.9133 138.52 43.5133 139.8C42.0733 140.44 40.4733 140.12 39.1933 139.16C37.7533 138.2 37.1133 136.76 37.2733 135C37.7533 131.96 39.0333 129.24 40.6333 126.68C44.9533 119.16 50.2333 112.28 55.5133 105.56C55.8333 105.08 56.3133 104.76 55.9933 104.28C55.8333 103.96 55.1933 104.12 54.7133 104.12C51.9933 104.44 49.1133 104.44 46.2333 104.76C40.7933 105.24 35.5133 105.72 30.0733 106.36C23.8333 107.32 17.5933 107.96 11.3533 108.76C8.47329 109.24 5.59329 109.56 2.71329 109.08C2.07329 109.08 1.27329 108.76 0.793291 108.28C0.633293 107.96 0.313293 107.8 0.473296 107.48C0.633293 107.32 0.953294 107.32 1.11329 107.48C2.71329 107.48 4.31329 107.32 5.75329 107.48C10.8733 108.28 15.8333 106.84 20.9533 106.36C27.9933 105.72 35.0333 104.6 42.2333 103.96C47.0333 103.64 51.8333 103.32 56.7933 102.84C57.4333 102.84 57.9133 102.52 58.2333 102.04C60.1533 99.64 62.2333 97.4 64.1533 95C65.2733 93.72 66.3933 92.44 67.5133 91.16C67.6733 90.84 67.8333 90.68 68.1533 90.52C68.6333 90.04 69.2733 89.88 69.9133 90.36C70.5533 90.68 70.2333 91.32 70.0733 91.96C69.2733 93.4 68.3133 94.84 67.3533 96.12C66.0733 97.88 64.6333 99.64 63.3533 101.4C63.0333 101.56 62.7133 101.88 62.8733 102.2C63.0333 102.68 63.5133 102.52 63.8333 102.52C69.9133 102.52 76.1533 102.36 82.2333 102.52C89.2733 102.68 96.4733 103.16 103.513 104.44C104.633 104.76 105.593 104.92 106.713 105.88C105.113 105.72 103.673 105.24 102.393 105.08C96.9533 104.44 91.5133 103.96 86.0733 103.8C81.5933 103.64 77.2733 103.32 72.7933 103.48C69.4333 103.48 66.0733 103.64 62.7133 103.64C61.5933 103.64 60.7933 104.12 60.1533 105.08C57.2733 108.6 54.3933 112.12 51.3533 115.48C49.1133 118.04 46.7133 120.28 44.6333 123C42.0733 126.52 39.8333 130.36 38.7133 134.84C38.3933 136.12 38.7133 137.4 39.8333 138.2C41.1133 139.16 42.3933 139 43.6733 138.36C45.7533 137.08 47.8333 135.64 49.9133 134.2C54.0733 130.84 57.9133 127.96 61.9133 124.92C62.0733 124.76 62.3933 124.6 62.7133 124.76ZM68.7933 91.8C68.3133 91.64 68.1533 91.96 67.9933 92.12C66.8733 93.4 65.5933 94.68 64.4733 96.12C63.0333 97.88 61.4333 99.8 59.9933 101.72C59.8333 102.04 59.5133 102.2 59.8333 102.52C60.1533 102.84 60.4733 102.68 60.6333 102.52C60.9533 102.36 61.1133 102.2 61.2733 102.04C63.5133 99.16 66.0733 96.44 67.9933 93.4C68.3133 92.92 68.7933 92.44 68.7933 91.8ZM52.4733 111.8C54.7133 109.72 56.6333 107.32 58.5533 105.08C58.8733 104.76 59.3533 104.44 59.0333 104.12C58.5533 103.64 58.0733 104.12 57.7533 104.44C57.5933 104.6 57.5933 104.76 57.4333 104.92C55.6733 107.16 53.9133 109.4 52.4733 111.8Z" fill="white"/>
<path d="M85.5933 125.56C83.8333 125.88 82.0733 126.36 80.3133 126.68C79.3533 126.84 78.5533 127.16 77.5933 127.16C75.9933 127.16 74.8733 128.12 73.9133 129.24C72.7933 131 71.8333 131.96 69.9133 132.76C69.1133 133.08 68.1533 133.24 67.1933 132.92C66.2333 132.44 65.4333 131.96 65.4333 130.68C65.4333 130.04 65.2733 129.72 64.6333 130.2C64.3133 130.52 63.8333 130.84 63.5133 131C62.2333 131.8 61.2733 131.48 60.3133 130.52C59.9933 130.2 59.8333 129.72 59.9933 129.24C60.4733 127.96 60.7933 126.52 61.5933 125.24C61.9133 124.76 62.2333 124.28 62.8733 124.76C63.5133 125.24 63.5133 125.56 63.1933 126.2C62.5533 127 62.3933 127.96 62.0733 128.76C61.9133 129.08 61.7533 129.24 62.0733 129.4C62.2333 129.56 62.3933 129.4 62.5533 129.24C63.9933 128.44 65.2733 127.48 66.2333 126.52C66.7133 126.04 67.1933 125.88 67.6733 126.36C68.3133 126.68 68.3133 127.16 67.9933 127.64C67.3533 128.6 67.3533 129.72 67.3533 130.68C67.3533 131.32 67.6733 131.64 68.1533 131.32C70.5533 130.36 71.9933 129.4 73.4333 127.16C73.5933 126.68 73.4333 126.36 73.1133 126.2C72.4733 125.56 72.1533 124.92 72.3133 124.12C72.4733 123.32 73.2733 122.84 74.0733 123.16C74.8733 123.48 75.6733 123.8 75.9933 124.76C76.1533 125.72 76.7933 125.88 77.5933 125.72C80.1533 125.4 82.7133 124.92 85.1133 124.76C85.2733 124.76 85.4333 124.76 85.5933 124.76C85.9133 124.76 86.7133 124.6 86.7133 125.24C86.7133 125.88 85.9133 125.56 85.5933 125.56Z" fill="white"/>
<path d="M88.2158 130.04C87.0958 130.04 85.6558 129.08 85.3358 128.12C85.0158 127.32 85.3358 125.4 85.9758 124.76C86.2958 124.44 86.7758 124.28 87.0958 124.6C87.5758 124.92 87.2558 125.24 87.0958 125.56C86.6158 126.36 85.9758 127.48 86.9358 128.28C87.8958 129.08 88.8558 128.44 89.8158 127.96C90.4558 127.64 90.9358 127.16 91.4158 126.84C91.8958 126.52 91.8958 126.2 91.2558 126.04C90.2958 126.04 89.3358 125.56 89.1758 124.6C89.0158 123.64 89.9758 123 90.7758 122.36C92.6958 121.08 94.4558 121.72 95.2558 123.8C95.4158 124.28 95.5758 124.76 96.0558 124.76C97.9758 125.08 100.056 124.92 102.136 124.92C102.776 124.92 103.576 124.76 104.376 124.76C104.536 124.76 105.016 124.6 105.016 125.08C105.016 125.4 104.696 125.4 104.376 125.56C101.336 125.88 98.4558 126.52 95.7358 125.88C94.9358 125.72 94.2958 126.2 93.8158 126.84C92.6958 128.12 91.4158 128.92 89.9758 129.56C89.3358 129.88 88.8558 130.04 88.2158 130.04Z" fill="white"/>
<path d="M110.813 132.44C109.533 132.28 108.413 131.96 107.773 130.84C107.133 129.56 107.773 128.6 108.573 127.64C109.213 126.84 109.853 125.88 110.653 125.08C110.813 124.76 110.973 124.6 110.813 124.28C110.493 124.12 110.333 124.28 110.173 124.44C108.573 124.92 106.973 125.4 105.373 125.72C104.733 125.88 104.253 125.88 103.613 125.72C102.173 125.24 101.853 124.44 102.653 123.16C104.253 120.6 106.333 118.52 108.733 116.6C108.893 116.44 109.213 116.28 109.373 116.12C110.013 115.8 110.493 115.96 111.133 116.44C111.613 116.76 111.453 117.4 111.293 117.88C110.653 119.32 109.853 120.6 109.053 121.88C108.893 122.2 108.413 122.52 108.733 122.84C108.893 123.16 109.373 123 109.693 122.84C110.813 122.52 111.933 122.04 113.053 121.72C113.693 121.56 114.333 121.56 114.653 122.2C115.133 122.84 114.653 123.16 114.173 123.64C112.413 125.24 110.813 127.16 109.533 129.08C109.213 129.56 108.893 129.88 109.053 130.36C109.373 131 110.013 131 110.493 131C112.733 130.68 114.813 129.72 116.733 128.6C118.493 127.64 120.253 126.84 121.693 125.4C122.173 124.92 122.813 124.92 123.293 124.76C123.613 124.76 123.773 124.76 123.773 124.92C123.773 125.08 123.773 125.24 123.613 125.4C119.933 128.28 116.253 131.32 111.613 132.28C111.293 132.28 110.973 132.28 110.813 132.44ZM104.413 124.28C105.213 124.28 105.373 123.48 105.853 123.16C107.453 121.88 108.413 120.12 109.533 118.52C109.693 118.36 109.853 118.04 109.533 117.88C109.373 117.72 109.213 117.88 109.053 118.04C107.453 119.48 105.853 120.6 104.733 122.36C104.413 122.68 104.253 123.16 104.093 123.64C103.933 123.96 104.093 124.28 104.413 124.28Z" fill="white"/>
<path d="M122.691 128.92C123.331 128.92 123.491 128.6 123.651 128.28C125.571 126.04 127.971 124.44 130.531 123.16C130.691 123 131.011 122.84 131.171 122.84C131.491 122.84 131.811 123 131.971 123.32C132.131 123.64 131.811 123.8 131.491 123.96C129.251 125.08 127.331 126.68 125.411 128.6C125.091 128.76 124.611 129.08 124.931 129.56C125.091 130.04 125.571 129.72 126.051 129.56C130.851 128.44 135.651 126.84 140.291 124.92C140.611 124.76 141.091 124.44 141.251 124.92C141.411 125.24 141.091 125.56 140.771 125.72C139.331 126.68 137.571 127.16 135.971 127.8C133.571 128.92 131.011 129.88 128.451 130.52C127.011 131 125.731 131 124.291 131C123.651 131 123.171 131 122.691 130.36C122.371 129.88 122.051 130.2 122.051 130.68C121.731 131.96 121.411 133.24 121.411 134.52C121.411 136.12 122.211 136.76 123.811 136.44C124.611 136.12 125.251 135.96 125.891 135.32C126.051 135.16 126.371 135 126.531 135.16C126.851 135.48 126.691 135.8 126.531 135.96C125.571 137.24 123.491 137.88 121.891 137.4C120.611 136.92 119.811 135.8 119.971 134.04C120.291 131.64 120.771 129.24 121.731 127C122.851 124.12 123.811 121.08 125.091 118.2C128.611 110.68 132.451 103.32 137.091 96.44C139.651 92.6 142.051 88.6 144.611 84.76C147.811 79.8 151.491 75.16 155.171 70.52C159.811 64.6 164.451 58.68 170.051 53.56C171.331 52.44 172.611 51.32 174.051 50.2C174.851 49.56 175.811 49.08 176.931 49.24C178.051 49.24 178.691 49.88 178.531 51C178.371 52.76 177.891 54.2 177.091 55.64C174.211 60.44 171.331 65.24 167.971 69.72C165.891 72.6 163.811 75.64 161.571 78.52C159.171 81.72 156.771 84.76 154.371 87.96C151.971 91 149.411 94.04 147.011 97.08C144.451 100.44 141.891 103.8 139.171 107.16C135.171 112.12 131.171 116.92 127.171 121.88C125.731 123.8 124.291 125.56 123.171 127.64C122.851 127.96 122.691 128.44 122.691 128.92ZM125.571 121.24C126.051 121.08 126.211 120.76 126.371 120.6C128.131 118.36 129.891 116.12 131.651 114.04C134.371 110.68 137.091 107.32 139.811 104.12C142.851 100.6 145.411 96.92 148.291 93.4C152.931 87.64 157.731 81.88 162.051 75.96C166.371 70.04 170.691 64.12 174.531 57.72C175.651 55.8 176.931 53.88 177.251 51.48C177.411 51 177.571 50.52 177.091 50.2C176.611 49.72 176.131 50.2 175.811 50.36C172.131 52.28 169.571 55.48 166.691 58.36C163.491 61.56 160.611 65.08 157.891 68.76C155.331 72.12 152.611 75.48 150.051 78.84C148.291 81.24 146.691 83.64 145.091 86.04C142.051 90.68 139.331 95.32 136.291 99.96C132.451 106.04 129.251 112.44 126.371 118.84C126.051 119.64 125.731 120.28 125.571 121.24Z" fill="white"/>
<path d="M122.427 162.68C119.867 162.68 118.907 161.24 119.387 159C119.707 157.24 120.667 155.8 121.627 154.36C125.147 149.08 129.467 144.44 134.267 140.44C136.987 138.36 139.547 136.12 142.107 133.88C142.587 133.56 142.587 133.08 142.587 132.6C142.267 130.52 141.787 128.6 140.987 126.68C140.667 125.88 140.347 125.08 140.347 124.28C139.867 122.04 141.787 119.8 144.187 120.12C144.347 120.12 144.667 120.12 144.827 120.28C145.147 120.28 145.307 120.44 145.147 120.6C145.147 120.92 144.987 120.92 144.827 120.92C144.187 120.92 143.707 121.08 143.227 121.24C141.467 122.2 141.307 122.84 141.787 124.76C142.427 127 143.547 129.24 143.867 131.64C144.027 132.44 144.507 131.96 144.827 131.8C147.227 130.04 149.467 128.28 151.707 126.52C152.507 126.04 153.307 125.4 154.107 124.92C154.427 124.6 154.747 124.6 154.907 124.92C155.227 125.24 155.067 125.4 154.907 125.72C154.747 125.88 154.427 126.04 154.267 126.2C150.907 128.44 147.867 131 144.667 133.56C144.347 133.72 144.027 134.04 144.027 134.68C144.347 140.76 141.947 146.04 138.267 150.84C136.187 153.56 133.787 155.96 131.227 158.2C128.987 160.12 126.427 161.72 123.547 162.52C123.067 162.68 122.587 162.68 122.427 162.68ZM120.667 159.96C120.507 161.72 120.987 162.04 122.587 161.72C124.027 161.4 125.147 160.92 126.427 160.28C130.907 157.56 134.587 154.04 137.627 149.88C140.347 145.88 142.427 141.4 142.747 136.6C142.747 136.12 143.067 135.8 142.587 135.48C142.107 135.32 141.947 135.64 141.627 135.8C138.747 138.36 135.707 140.76 132.827 143.32C129.147 146.68 125.787 150.36 122.907 154.36C121.787 156.12 120.667 157.72 120.667 159.96Z" fill="white"/>
</svg>
